<?xml version="1.0" encoding="UTF-8" standalone="no"?>
<svg
   xmlns:dc="http://purl.org/dc/elements/1.1/"
   xmlns:cc="http://creativecommons.org/ns#"
   xmlns:rdf="http://www.w3.org/1999/02/22-rdf-syntax-ns#"
   xmlns:svg="http://www.w3.org/2000/svg"
   xmlns="http://www.w3.org/2000/svg"
   xmlns:sodipodi="http://sodipodi.sourceforge.net/DTD/sodipodi-0.dtd"
   xmlns:inkscape="http://www.inkscape.org/namespaces/inkscape"
   viewBox="0 0 38.56 36.53"
   version="1.1"
   id="svg20"
   sodipodi:docname="1.svg"
   inkscape:version="0.92.5 (2060ec1f9f, 2020-04-08)">
  <metadata
     id="metadata24">
    <rdf:RDF>
      <cc:Work
         rdf:about="">
        <dc:format>image/svg+xml</dc:format>
        <dc:type
           rdf:resource="http://purl.org/dc/dcmitype/StillImage" />
      </cc:Work>
    </rdf:RDF>
  </metadata>
  <sodipodi:namedview
     pagecolor="#ffffff"
     bordercolor="#666666"
     borderopacity="1"
     objecttolerance="10"
     gridtolerance="10"
     guidetolerance="10"
     inkscape:pageopacity="0"
     inkscape:pageshadow="2"
     inkscape:window-width="870"
     inkscape:window-height="480"
     id="namedview22"
     showgrid="false"
     inkscape:zoom="6.4604437"
     inkscape:cx="19.280001"
     inkscape:cy="18.264999"
     inkscape:window-x="0"
     inkscape:window-y="0"
     inkscape:window-maximized="0"
     inkscape:current-layer="Livello_1-2" />
  <defs
     id="defs4">
    <style
       id="style2">.cls-1{fill:#63b76b;stroke:#63b76b;stroke-miterlimit:10;}</style>
  </defs>
  <g
     id="Livello_2"
     data-name="Livello 2">
    <g
       id="Livello_1-2"
       data-name="Livello 1">
      <polygon
         class="cls-1"
         points="19.28 0.58 0.5 11.84 0.5 14.07 38.06 14.07 38.06 11.84 19.28 0.58"
         id="polygon6"
         style="fill:#961a28;fill-opacity:1;stroke:#961a28;stroke-opacity:1" />
      <path
         class="cls-1"
         d="M7.26,31.46V18.62a2.23,2.23,0,0,0,2-2.21H3A2.22,2.22,0,0,0,5,18.62V31.46Z"
         id="path8"
         style="fill:#961a28;fill-opacity:1;stroke:#961a28;stroke-opacity:1" />
      <path
         class="cls-1"
         d="M16,31.46V18.62a2.23,2.23,0,0,0,2-2.21H11.71a2.22,2.22,0,0,0,2,2.21V31.46Z"
         id="path10"
         style="fill:#961a28;fill-opacity:1;stroke:#961a28;stroke-opacity:1" />
      <path
         class="cls-1"
         d="M24.8,31.46V18.62a2.22,2.22,0,0,0,2-2.21H20.52a2.22,2.22,0,0,0,2.05,2.21V31.46Z"
         id="path12"
         style="fill:#961a28;fill-opacity:1;stroke:#961a28;stroke-opacity:1" />
      <path
         class="cls-1"
         d="M33.53,31.46V18.62a2.23,2.23,0,0,0,2-2.21H29.25a2.22,2.22,0,0,0,2.05,2.21V31.46Z"
         id="path14"
         style="fill:#961a28;fill-opacity:1;stroke:#961a28;stroke-opacity:1" />
      <rect
         class="cls-1"
         x="0.5"
         y="33.8"
         width="37.56"
         height="2.23"
         id="rect16"
         style="fill:#961a28;fill-opacity:1;stroke:#961a28;stroke-opacity:1" />
    </g>
  </g>
</svg>
