<?xml version="1.0" encoding="UTF-8" standalone="no"?>
<svg
   xmlns:dc="http://purl.org/dc/elements/1.1/"
   xmlns:cc="http://creativecommons.org/ns#"
   xmlns:rdf="http://www.w3.org/1999/02/22-rdf-syntax-ns#"
   xmlns:svg="http://www.w3.org/2000/svg"
   xmlns="http://www.w3.org/2000/svg"
   xmlns:sodipodi="http://sodipodi.sourceforge.net/DTD/sodipodi-0.dtd"
   xmlns:inkscape="http://www.inkscape.org/namespaces/inkscape"
   viewBox="0 0 27.24 35.6"
   version="1.1"
   id="svg54"
   sodipodi:docname="3.svg"
   inkscape:version="0.92.5 (2060ec1f9f, 2020-04-08)">
  <metadata
     id="metadata58">
    <rdf:RDF>
      <cc:Work
         rdf:about="">
        <dc:format>image/svg+xml</dc:format>
        <dc:type
           rdf:resource="http://purl.org/dc/dcmitype/StillImage" />
      </cc:Work>
    </rdf:RDF>
  </metadata>
  <sodipodi:namedview
     pagecolor="#ffffff"
     bordercolor="#666666"
     borderopacity="1"
     objecttolerance="10"
     gridtolerance="10"
     guidetolerance="10"
     inkscape:pageopacity="0"
     inkscape:pageshadow="2"
     inkscape:window-width="1280"
     inkscape:window-height="743"
     id="namedview56"
     showgrid="false"
     inkscape:zoom="6.6292138"
     inkscape:cx="13.62"
     inkscape:cy="17.799999"
     inkscape:window-x="0"
     inkscape:window-y="0"
     inkscape:window-maximized="1"
     inkscape:current-layer="Livello_1-2" />
  <defs
     id="defs48">
    <style
       id="style46">.cls-1{fill:#63b76b;}</style>
  </defs>
  <g
     id="Livello_2"
     data-name="Livello 2">
    <g
       id="Livello_1-2"
       data-name="Livello 1">
      <path
         class="cls-1"
         d="M27.24,13.62A13.62,13.62,0,0,0,0,13.62c0,.29,0,.58,0,.86H0a7.55,7.55,0,0,0,.25,1.88v0c0,.13.07.26.1.4a13.65,13.65,0,0,0,2.09,4.64C6.38,28.22,13.62,35.6,13.62,35.6s7.25-7.38,11.16-14.17a13.63,13.63,0,0,0,2.08-4.64c0-.14.07-.27.1-.4v0a8,8,0,0,0,.25-1.88h0C27.22,14.2,27.24,13.91,27.24,13.62ZM13.62,20a6.77,6.77,0,1,1,6.77-6.77A6.77,6.77,0,0,1,13.62,20Z"
         id="path50"
         style="fill:#961a28;fill-opacity:1" />
    </g>
  </g>
</svg>
