<?xml version="1.0" encoding="UTF-8" standalone="no"?>
<svg
   xmlns:dc="http://purl.org/dc/elements/1.1/"
   xmlns:cc="http://creativecommons.org/ns#"
   xmlns:rdf="http://www.w3.org/1999/02/22-rdf-syntax-ns#"
   xmlns:svg="http://www.w3.org/2000/svg"
   xmlns="http://www.w3.org/2000/svg"
   version="1.1"
   id="Livello_1"
   x="0px"
   y="0px"
   viewBox="0 0 29.440001 29.440001"
   xml:space="preserve"
   width="100%"
   height="100%"><metadata
   id="metadata139"><rdf:RDF><cc:Work
       rdf:about=""><dc:format>image/svg+xml</dc:format><dc:type
         rdf:resource="http://purl.org/dc/dcmitype/StillImage" /><dc:title></dc:title></cc:Work></rdf:RDF></metadata><defs
   id="defs137" />
<style
   type="text/css"
   id="style2">
	.st0{fill:#E7E127;}
	.st1{fill:#63B76B;}
	.st2{fill:#2AAFE5;}
</style>























<path
   class="st1"
   d="m 25.66,21.11 c 0.85,-0.85 0.85,-2.24 0,-3.09 l -2.2,2.2 L 18.4,14.83 26.32,7.4 29.44,0 22.04,3.12 14.72,10.91 7.4,3.12 0,0 l 3.12,7.4 7.92,7.43 -5.06,5.39 -2.2,-2.2 c -0.85,0.85 -0.85,2.24 0,3.09 l 1.5,1.5 -5.28,5.28 1.55,1.55 5.28,-5.28 1.5,1.5 c 0.85,0.85 2.24,0.85 3.09,0 l -2.2,-2.2 5.5,-5.17 5.5,5.17 -2.2,2.2 c 0.85,0.85 2.24,0.85 3.09,0 l 1.5,-1.5 5.28,5.28 1.55,-1.55 -5.28,-5.28 z"
   id="path50"
   style="fill:#9b1a20;fill-opacity:1" />



























</svg>
