<?xml version="1.0" encoding="UTF-8" standalone="no"?>
<svg
   xmlns:dc="http://purl.org/dc/elements/1.1/"
   xmlns:cc="http://creativecommons.org/ns#"
   xmlns:rdf="http://www.w3.org/1999/02/22-rdf-syntax-ns#"
   xmlns:svg="http://www.w3.org/2000/svg"
   xmlns="http://www.w3.org/2000/svg"
   xmlns:sodipodi="http://sodipodi.sourceforge.net/DTD/sodipodi-0.dtd"
   xmlns:inkscape="http://www.inkscape.org/namespaces/inkscape"
   version="1.1"
   id="svg2"
   x="0px"
   y="0px"
   viewBox="0 0 300 300"
   style="enable-background:new 0 0 300 300;"
   xml:space="preserve"
   sodipodi:docname="apple-touch-icon.svg"
   inkscape:version="1.0.2-2 (e86c870879, 2021-01-15)"><sodipodi:namedview
   pagecolor="#ffffff"
   bordercolor="#666666"
   borderopacity="1"
   objecttolerance="10"
   gridtolerance="10"
   guidetolerance="10"
   inkscape:pageopacity="0"
   inkscape:pageshadow="2"
   inkscape:window-width="1366"
   inkscape:window-height="705"
   id="namedview19"
   showgrid="false"
   inkscape:zoom="1.2680782"
   inkscape:cx="81.631665"
   inkscape:cy="177.25494"
   inkscape:window-x="-8"
   inkscape:window-y="-8"
   inkscape:window-maximized="1"
   inkscape:current-layer="svg2" /><metadata
   id="metadata31"><rdf:RDF><cc:Work
       rdf:about=""><dc:format>image/svg+xml</dc:format><dc:type
         rdf:resource="http://purl.org/dc/dcmitype/StillImage" /><dc:title /></cc:Work></rdf:RDF></metadata><defs
   id="defs29" />
<style
   type="text/css"
   id="style2">
	.st0{fill:#F5F5F5;}
	.st1{fill:#9B1A20;}
	.st2{fill:#1D1D1B;}
	.st3{fill:#9B1A20;stroke:#9B1A20;stroke-width:1.5;stroke-miterlimit:10;}
</style>
<rect
   class="st0"
   width="300"
   height="300"
   id="rect4"
   inkscape:export-xdpi="163.84"
   inkscape:export-ydpi="163.84" />

<g
   id="Livello_2_00000127030998739229796040000018109159760557502879_"
   transform="matrix(0.68446273,0,0,0.68446273,47.073921,46.995971)">
	<g
   id="Livello_1-2">
		<g
   id="aIBHBp">
			<path
   class="st1"
   d="m 93.2,233.3 c -1.2,3.2 -2.1,6.4 -2.8,9.8 -1.3,6.5 2.8,8.9 7.8,9.3 2.6,0.2 5.2,0.2 7.9,0.3 1.1,0.1 2.2,0.4 2.2,1.7 0.1,1.1 -0.8,2 -1.9,2.1 -0.1,0 -0.1,0 -0.2,0 -2.8,0.2 -5.5,0.3 -8.3,0.2 -14.4,-0.8 -28.8,-0.5 -43.2,0 -3.2,0.1 -6.5,0.1 -9.7,0.1 -1,0 -2,-0.2 -2.9,-0.7 -0.7,-0.4 -1.1,-1.1 -1.3,-1.8 0.2,-0.7 0.8,-1.3 1.6,-1.5 1.7,-0.3 3.4,-0.2 5.2,-0.4 2.7,-0.2 5.4,-0.6 8.1,-1.1 6.4,-1.5 10.8,-5.7 13.8,-11.4 3.1,-6 6,-12.2 8.8,-18.4 12.1,-27.4 24.3,-54.9 36.5,-82.4 8.3,-18.6 16.5,-37.3 24.8,-55.9 1.2,-2.6 2.6,-5 4.3,-7.2 1.7,-2.3 3.7,-2.3 5.5,0 1.6,2 2.9,4.2 4,6.5 12.1,27 24.1,54.1 36.1,81.1 9.3,20.7 18.6,41.4 27.9,62.1 2.9,6.7 6.8,13 11.5,18.6 4,4.5 8.9,7.4 15.1,7.8 2.4,0.1 4.8,0.2 7.2,0.4 0.5,0 1,0.1 1.6,0.2 1,0.1 1.9,0.5 1.9,1.7 0,1.2 -0.9,1.6 -1.9,1.8 -2.1,0.3 -4.3,0.5 -6.4,0.6 -3.9,0.1 -7.2,-0.1 -11.3,-0.2 -0.2,0 -0.4,0 -0.5,0 -12,0 -24.1,0 -36.1,0 -3.3,0 -6.7,-0.3 -10,-0.6 -1,-0.1 -2.5,-0.1 -2.6,-1.5 -0.1,-1.4 1.4,-1.7 2.6,-1.9 3.5,-0.5 4.6,-2.4 3.2,-5.6 -11.6,-28.1 -23.2,-56.3 -34.8,-84.4 -3,-7.4 -6,-14.8 -9,-22.2 -2.2,-5.5 -4.5,-11 -6.8,-16.5 -0.2,-0.5 -0.7,-0.8 -1.1,-1.2 -0.4,0.4 -1,0.8 -1.2,1.3 -3.2,7.5 -6.2,15.1 -9.4,22.6 -5.3,12.8 -10.7,25.6 -16.1,38.5 z"
   id="path7" />
			<path
   class="st2"
   d="m 179.9,138.1 c 8.4,5.9 17.1,11.8 25.7,18 8.6,6.2 17,12.8 24.1,20.7 11,12.2 15.5,26.4 13.6,42.7 -1,8.8 -4.8,17 -10.8,23.5 -0.2,0.2 -1.1,0.9 -1.6,1.4 -1.8,-2.1 -3.4,-4.4 -4.8,-6.8 -0.3,-0.4 -0.5,-0.9 -0.8,-1.3 -3.9,-5.4 -6.5,-11.6 -9.2,-17.7 -11.9,-26.6 -23.9,-53.1 -35.8,-79.7 -0.2,-0.3 -0.4,-0.7 -0.4,-0.8 z"
   id="path9" />
			<path
   class="st2"
   d="m 173.1,122.5 -8,-18 c 3.7,-2.6 7.7,-4.8 12,-6.4 8.8,-3.2 18.2,-4.9 27.6,-5 12,-0.2 24,1.1 35.6,3.7 4.4,1 4.7,1.3 4.6,5.7 -0.3,9.2 -0.6,18.4 -1,27.6 -0.1,1.1 -0.3,2.2 -0.6,3.2 -0.2,1 -1.2,1.8 -2.2,1.8 -1.1,0 -2,-0.9 -2.1,-2 -0.2,-1.3 -0.3,-2.7 -0.4,-4 -0.6,-5.5 -3.3,-10 -6.9,-14 -6.5,-7.1 -14.7,-10.3 -24.2,-11 -6.6,-0.5 -13.1,0 -19.3,2.5 -7.2,2.9 -12.4,7.6 -14.6,15.2 -0.2,0.2 -0.4,0.5 -0.5,0.7 z"
   id="path11" />
			<path
   class="st2"
   d="m 188.9,245.4 c 4.8,9.3 -6,3.2 -5.4,11 -5,-0.3 -9.7,-0.4 -14.4,-0.9 -4.2,-0.6 -8.4,-1.4 -12.6,-2.5 -3.3,-0.6 -5.7,-3.4 -5.8,-6.8 -0.6,-8.5 -1,-17 -1.5,-25.6 -0.1,-2.7 -0.1,-5.4 -0.1,-8.1 0,-0.7 0.2,-1.4 0.4,-2 0.3,-1.3 1,-2.2 2.5,-2.1 1.5,0.1 2.1,1.2 2.3,2.4 0.3,1.5 0.4,3.1 0.8,4.6 2.6,9.9 7,18.6 16.2,24 3.8,2.3 13.3,5.2 17.6,6 z"
   id="path13" />
		</g>
		<path
   class="st2"
   d="m 150.4,74.9 c 3.7,4.2 8.1,14.2 10.7,19.8 1,2.1 3,6.3 3.2,6.6 26.5,-13.6 53,-13.1 80.4,-5.6 1.5,-8.4 4.9,-19.4 11.4,-27.3 l -4.2,-0.2 C 239.8,91.1 218.4,77 220.5,54.3 l -3.4,-0.4 c 2.3,31.2 -28.9,28.6 -30.8,1.2 l -3.2,0.7 c 6,29.2 -15.5,34.8 -28.8,18 z"
   id="path16" />
		<circle
   class="st3"
   cx="151.10001"
   cy="69"
   r="2.9000001"
   id="circle18" />
		<circle
   class="st3"
   cx="219.3"
   cy="47.799999"
   r="2.9000001"
   id="circle20" />
		<circle
   class="st3"
   cx="183.7"
   cy="49.700001"
   r="2.9000001"
   id="circle22" />
		<circle
   class="st3"
   cx="256.29999"
   cy="63.5"
   r="2.9000001"
   id="circle24" />
	</g>
</g>
</svg>
