<?xml version="1.0" encoding="utf-8"?>
<!-- Generator: Adobe Illustrator 26.0.2, SVG Export Plug-In . SVG Version: 6.00 Build 0)  -->
<svg version="1.1" id="Livello_1" xmlns="http://www.w3.org/2000/svg" xmlns:xlink="http://www.w3.org/1999/xlink" x="0px" y="0px"
	 viewBox="0 0 219.1 212.7" style="enable-background:new 0 0 219.1 212.7;" xml:space="preserve">
<style type="text/css">
	.st0{fill:#9B1A20;}
	.st1{fill:#1D1D1B;}
	.st2{fill:#9B1A20;stroke:#9B1A20;stroke-width:1.5;stroke-miterlimit:10;}
</style>
<g id="Livello_2_00000127030998739229796040000018109159760557502879_">
	<g id="Livello_1-2">
		<g id="aIBHBp">
			<path class="st0" d="M52.3,189.2c-1.2,3.2-2.1,6.4-2.8,9.8c-1.3,6.5,2.8,8.9,7.8,9.3c2.6,0.2,5.2,0.2,7.9,0.3
				c1.1,0.1,2.2,0.4,2.2,1.7c0.1,1.1-0.8,2-1.9,2.1c-0.1,0-0.1,0-0.2,0c-2.8,0.2-5.5,0.3-8.3,0.2c-14.4-0.8-28.8-0.5-43.2,0
				c-3.2,0.1-6.5,0.1-9.7,0.1c-1,0-2-0.2-2.9-0.7c-0.7-0.4-1.1-1.1-1.3-1.8c0.2-0.7,0.8-1.3,1.6-1.5c1.7-0.3,3.4-0.2,5.2-0.4
				c2.7-0.2,5.4-0.6,8.1-1.1c6.4-1.5,10.8-5.7,13.8-11.4c3.1-6,6-12.2,8.8-18.4C49.5,150,61.7,122.5,73.9,95
				c8.3-18.6,16.5-37.3,24.8-55.9c1.2-2.6,2.6-5,4.3-7.2c1.7-2.3,3.7-2.3,5.5,0c1.6,2,2.9,4.2,4,6.5c12.1,27,24.1,54.1,36.1,81.1
				c9.3,20.7,18.6,41.4,27.9,62.1c2.9,6.7,6.8,13,11.5,18.6c4,4.5,8.9,7.4,15.1,7.8c2.4,0.1,4.8,0.2,7.2,0.4c0.5,0,1,0.1,1.6,0.2
				c1,0.1,1.9,0.5,1.9,1.7s-0.9,1.6-1.9,1.8c-2.1,0.3-4.3,0.5-6.4,0.6c-3.9,0.1-7.2-0.1-11.3-0.2c-0.2,0-0.4,0-0.5,0
				c-12,0-24.1,0-36.1,0c-3.3,0-6.7-0.3-10-0.6c-1-0.1-2.5-0.1-2.6-1.5s1.4-1.7,2.6-1.9c3.5-0.5,4.6-2.4,3.2-5.6
				c-11.6-28.1-23.2-56.3-34.8-84.4c-3-7.4-6-14.8-9-22.2c-2.2-5.5-4.5-11-6.8-16.5c-0.2-0.5-0.7-0.8-1.1-1.2
				c-0.4,0.4-1,0.8-1.2,1.3c-3.2,7.5-6.2,15.1-9.4,22.6c-5.3,12.8-10.7,25.6-16.1,38.5L52.3,189.2z"/>
			<path class="st1" d="M139,94c8.4,5.9,17.1,11.8,25.7,18s17,12.8,24.1,20.7c11,12.2,15.5,26.4,13.6,42.7c-1,8.8-4.8,17-10.8,23.5
				c-0.2,0.2-1.1,0.9-1.6,1.4c-1.8-2.1-3.4-4.4-4.8-6.8c-0.3-0.4-0.5-0.9-0.8-1.3c-3.9-5.4-6.5-11.6-9.2-17.7
				c-11.9-26.6-23.9-53.1-35.8-79.7C139.2,94.5,139,94.1,139,94z"/>
			<path class="st1" d="M132.2,78.4l-8-18c3.7-2.6,7.7-4.8,12-6.4c8.8-3.2,18.2-4.9,27.6-5c12-0.2,24,1.1,35.6,3.7
				c4.4,1,4.7,1.3,4.6,5.7c-0.3,9.2-0.6,18.4-1,27.6c-0.1,1.1-0.3,2.2-0.6,3.2c-0.2,1-1.2,1.8-2.2,1.8c-1.1,0-2-0.9-2.1-2
				c-0.2-1.3-0.3-2.7-0.4-4c-0.6-5.5-3.3-10-6.9-14c-6.5-7.1-14.7-10.3-24.2-11c-6.6-0.5-13.1,0-19.3,2.5
				c-7.2,2.9-12.4,7.6-14.6,15.2C132.5,77.9,132.3,78.2,132.2,78.4z"/>
			<path class="st1" d="M148,201.3c4.8,9.3-6,3.2-5.4,11c-5-0.3-9.7-0.4-14.4-0.9c-4.2-0.6-8.4-1.4-12.6-2.5
				c-3.3-0.6-5.7-3.4-5.8-6.8c-0.6-8.5-1-17-1.5-25.6c-0.1-2.7-0.1-5.4-0.1-8.1c0-0.7,0.2-1.4,0.4-2c0.3-1.3,1-2.2,2.5-2.1
				s2.1,1.2,2.3,2.4c0.3,1.5,0.4,3.1,0.8,4.6c2.6,9.9,7,18.6,16.2,24C134.2,197.6,143.7,200.5,148,201.3z"/>
		</g>
		<path class="st1" d="M109.5,30.8c3.7,4.2,8.1,14.2,10.7,19.8c1,2.1,3,6.3,3.2,6.6c26.5-13.6,53-13.1,80.4-5.6
			c1.5-8.4,4.9-19.4,11.4-27.3l-4.2-0.2c-12.1,22.9-33.5,8.8-31.4-13.9l-3.4-0.4c2.3,31.2-28.9,28.6-30.8,1.2l-3.2,0.7
			c6,29.2-15.5,34.8-28.8,18L109.5,30.8z"/>
		<circle class="st2" cx="110.2" cy="24.9" r="2.9"/>
		<circle class="st2" cx="178.4" cy="3.7" r="2.9"/>
		<circle class="st2" cx="142.8" cy="5.6" r="2.9"/>
		<circle class="st2" cx="215.4" cy="19.4" r="2.9"/>
	</g>
</g>
</svg>
