<svg class="block m-auto text-center h-16 w-16"
            width="77.296448mm"
            height="80.026337mm"
            viewBox="0 0 77.296448 70.026337"
            version="1.1"
            id="svg1974"
            xmlns="http://www.w3.org/2000/svg"
            xmlns:svg="http://www.w3.org/2000/svg">
            <defs
              id="defs1971" />
            <g
              id="layer1"
              transform="translate(-58.309297,-78.907949)">
              <g
                id="g2098"
                transform="matrix(0.35277777,0,0,-0.35277777,135.34067,85.721993)">
                <g
                  id="g2716">
                  <path
                    d="m 0,0 c -1.271,-3.112 -2.089,-6.447 -2.777,-9.749 -1.352,-6.492 2.829,-8.919 7.845,-9.282 2.609,-0.189 5.233,-0.167 7.847,-0.299 1.087,-0.055 2.169,-0.348 2.232,-1.709 0.063,-1.379 -0.941,-2.026 -2.094,-2.097 -2.762,-0.171 -5.546,-0.353 -8.302,-0.196 -14.409,0.819 -28.813,0.508 -43.221,0.025 -3.247,-0.11 -6.499,-0.134 -9.748,-0.095 -0.969,0.011 -2.032,0.184 -2.866,0.629 -0.613,0.327 -1.307,1.252 -1.258,1.852 0.047,0.567 0.956,1.407 1.591,1.517 1.689,0.292 3.442,0.183 5.156,0.368 2.698,0.29 5.438,0.461 8.064,1.088 6.383,1.523 10.8,5.732 13.744,11.352 3.149,6.013 5.999,12.191 8.761,18.394 12.232,27.461 24.389,54.956 36.565,82.441 8.258,18.639 16.469,37.298 24.796,55.906 1.141,2.55 2.639,5.001 4.323,7.233 1.734,2.297 3.668,2.281 5.467,-0.012 1.565,-1.996 2.949,-4.219 3.984,-6.533 12.089,-27.011 24.067,-54.07 36.135,-81.09 9.252,-20.716 18.562,-41.406 27.908,-62.08 3.028,-6.699 6.67,-13.062 11.536,-18.626 3.975,-4.546 8.868,-7.441 15.053,-7.772 2.405,-0.129 4.81,-0.251 7.215,-0.391 0.52,-0.03 1.038,-0.12 1.556,-0.192 1.003,-0.141 1.885,-0.492 1.921,-1.673 0.037,-1.213 -0.933,-1.637 -1.862,-1.77 -2.119,-0.302 -4.259,-0.573 -6.395,-0.626 -3.93,-0.097 -7.223,0.146 -11.257,0.247 -0.197,-0.003 -0.368,0.021 -0.539,0.026 -12.047,0 -24.095,-0.042 -36.143,0.028 -3.346,0.019 -6.696,0.305 -10.03,0.616 -0.994,0.092 -2.533,0.101 -2.567,1.516 -0.037,1.527 1.417,1.731 2.627,1.908 3.511,0.516 4.569,2.346 3.219,5.608 -11.627,28.106 -23.266,56.207 -34.872,84.321 -3.051,7.39 -5.995,14.824 -9,22.233 -2.238,5.517 -4.481,11.033 -6.764,16.532 -0.196,0.473 -0.703,0.818 -1.065,1.222 -0.404,-0.433 -0.971,-0.796 -1.186,-1.307 C 42.443,102.046 39.348,94.504 36.209,86.979 30.86,74.153 25.479,61.34 20.131,48.513 Z"
                    style="fill:#961a28;fill-opacity:1;fill-rule:nonzero;stroke:none"
                    id="path980"
                    transform="translate(-166.0122,-169.9382)" />
                  <path class="fill-as-nero dark:fill-white"
                    d="m 0,0 c 8.424,-5.887 17.147,-11.841 25.715,-18.01 8.627,-6.211 16.959,-12.787 24.106,-20.745 10.961,-12.206 15.53,-26.444 13.631,-42.706 -1.05,-8.986 -4.777,-16.821 -10.829,-23.547 -0.172,-0.191 -1.09,-0.913 -1.618,-1.408 -1.833,2.124 -3.372,4.404 -4.786,6.784 -0.262,0.44 -0.544,0.869 -0.84,1.286 -3.872,5.45 -6.471,11.599 -9.196,17.668 C 24.255,-54.118 12.33,-27.556 0.407,-0.993 0.202,-0.536 0.027,-0.066 0,0"
                    style="fill-opacity:1;fill-rule:nonzero;stroke:none"
                    id="path984"
                    transform="translate(-79.373603,-74.673399)" />
                  <path class="fill-as-nero dark:fill-white"
                    d="m 0,0 c -2.67,6.028 -5.288,11.94 -7.956,17.963 3.747,2.676 7.777,4.735 12.03,6.365 8.892,3.406 18.136,4.77 27.627,4.948 12.046,0.226 23.903,-1.149 35.648,-3.708 4.369,-0.953 4.688,-1.313 4.548,-5.65 C 71.598,10.705 71.29,1.493 70.934,-7.718 70.893,-8.796 70.64,-9.9 70.286,-10.924 c -0.354,-1.028 -1.085,-1.797 -2.339,-1.719 -1.236,0.076 -1.927,0.827 -2.115,1.96 -0.221,1.335 -0.284,2.695 -0.425,4.044 -0.573,5.507 -3.304,9.973 -6.908,13.958 -6.464,7.146 -14.74,10.376 -24.195,11.02 -6.595,0.45 -13.075,0.014 -19.279,-2.452 C 7.849,13.033 2.584,8.29 0.374,0.636 0.321,0.452 0.177,0.295 0,0"
                    style="fill-opacity:1;fill-rule:nonzero;stroke:none"
                    id="path988"
                    transform="translate(-86.162798,-59.054799)" />
                  <path class="fill-as-nero dark:fill-white"
                    d="m 0,0 c 4.76,-9.32 -5.967,-3.185 -5.388,-11.021 -5.007,0.3 -9.714,0.357 -14.359,0.928 -4.23,0.52 -8.418,1.484 -12.574,2.467 -3.545,0.838 -5.514,3.159 -5.758,6.76 -0.577,8.514 -1.045,17.035 -1.489,25.557 -0.141,2.712 -0.092,5.435 -0.075,8.152 0.004,0.665 0.174,1.342 0.355,1.989 0.353,1.256 1.027,2.184 2.517,2.099 1.493,-0.086 2.053,-1.157 2.319,-2.377 0.335,-1.531 0.394,-3.127 0.794,-4.637 2.613,-9.874 6.998,-18.577 16.195,-24.02 C -13.819,3.74 -4.349,0.8 0,0"
                    style="fill-opacity:1;fill-rule:nonzero;stroke:none"
                    id="path992"
                    transform="translate(-70.341,-181.995)" />
                  <path class="fill-as-nero dark:fill-white"
                    d="m 0,0 c 3.686,-4.268 8.137,-14.231 10.726,-19.78 0.963,-2.066 2.992,-6.292 3.169,-6.623 26.498,13.609 53.032,13.102 80.368,5.584 1.498,8.353 4.941,19.41 11.388,27.282 l -4.228,0.243 C 89.363,-16.142 67.934,-2.075 70.025,20.571 l -3.388,0.358 C 68.939,-10.256 37.777,-7.694 35.874,19.719 L 32.678,19.012 C 38.677,-10.227 17.191,-15.807 3.921,0.962 Z"
                    style="fill-opacity:1;fill-rule:nonzero;stroke:none"
                    id="path996"
                    transform="translate(-108.8673,-11.4513)" />
                  <path
                    d="M 0,0 C 0.02376319,-0.7723037 -0.25221063,-1.4842986 -0.72282538,-2.0242328 -1.1259242,-2.4867063 -1.6718224,-2.8229465 -2.2944771,-2.9627282 -2.4744378,-3.0031282 -2.6608103,-3.0271172 -2.852,-3.033 c -1.625,-0.05 -2.983,1.227 -3.033,2.852 -0.05,1.625 1.227,2.983 2.852,3.033 C -1.408,2.902 -0.05,1.625 0,0 Z"
                    style="fill:#961a28;fill-opacity:1;stroke:#961a28;stroke-width:1.5;stroke-linecap:butt;stroke-linejoin:miter;stroke-miterlimit:10;stroke-dasharray:none;stroke-opacity:1"
                    id="path1004"
                    transform="translate(-105.1821,-5.4767997)"> 
                    <animateTransform attributeType="xml"
        attributeName="transform" type="translate"
        values="-105.1821 -5.4767997; -105.1821 10.4767997; -105.1821 -5.4767997"
        begin="0.4s" dur="0.6s" repeatCount="indefinite" />
                </path>

                  <path
                    d="m 0,0 c 0.05,-1.625 -1.227,-2.983 -2.852,-3.033 -1.625,-0.05 -2.983,1.227 -3.033,2.852 -0.05,1.625 1.227,2.983 2.852,3.033 C -1.408,2.902 -0.05,1.625 0,0 Z"
                    style="fill:#961a28;fill-opacity:1;stroke:#961a28;stroke-width:1.5;stroke-linecap:butt;stroke-linejoin:miter;stroke-miterlimit:10;stroke-dasharray:none;stroke-opacity:1"
                    id="path1012"
                    transform="translate(-37.025302,15.711998)" >
                    <animateTransform attributeType="xml"
        attributeName="transform" type="translate"
        values="-37.025302 15.711998; -37.025302 30.711998; -37.025302 15.711998"
        begin="0.2s" dur="0.6s" repeatCount="indefinite" /> </path>
                  <path
                    d="m 0,0 c 0.05,-1.625 -1.227,-2.983 -2.852,-3.033 -1.625,-0.05 -2.983,1.226 -3.033,2.852 -0.05,1.625 1.227,2.983 2.852,3.033 C -1.408,2.902 -0.05,1.625 0,0 Z"
                    style="fill:#961a28;fill-opacity:1;stroke:#961a28;stroke-width:1.5;stroke-linecap:butt;stroke-linejoin:miter;stroke-miterlimit:10;stroke-dasharray:none;stroke-opacity:1"
                    id="path1020"
                    transform="translate(-72.615,13.802798)" >
                    <animateTransform attributeType="xml"
        attributeName="transform" type="translate"
        values="-72.615 13.802798; -72.615 28.802798; -72.615 13.802798"
        begin="0.0s" dur="0.6s" repeatCount="indefinite" /> </path>
                  <path
                    d="m 0,0 c 0.05,-1.625 -1.227,-2.983 -2.852,-3.033 -1.625,-0.05 -2.983,1.227 -3.033,2.852 -0.05,1.625 1.227,2.983 2.852,3.033 C -1.408,2.902 -0.05,1.625 0,0 Z"
                    style="fill:#961a28;fill-opacity:1;stroke:#961a28;stroke-width:1.5;stroke-linecap:butt;stroke-linejoin:miter;stroke-miterlimit:10;stroke-dasharray:none;stroke-opacity:1"
                    id="path1028" >
                    <animateTransform attributeType="xml"
        attributeName="transform" type="translate"
        values="0 0; 0 15; 0 0"
        begin="0.0s" dur="0.6s" repeatCount="indefinite" /> </path>
                </g>
              </g>
            </g>
          </svg>