<svg xmlns="http://www.w3.org/2000/svg" viewBox="0 0 1681.63 282.75"><defs><style>.cls-1{isolation:isolate;}.cls-2{fill:#961a28;}.cls-3,.cls-5{fill:#9b1a20;}.cls-4{fill:#1d1d1b;}.cls-5{stroke:#9b1a20;stroke-miterlimit:10;stroke-width:1.5px;}</style></defs><g id="Livello_2" data-name="Livello 2"><g id="svg2"><g id="g10"><g id="text854" class="cls-1"><g class="cls-1"><path class="cls-2" d="M525.87,223.08,507.59,176H448.07l-18.18,47.12H412.42L470.52,74h15.54l57.68,149.09Zm-23.46-62.46L485,113.8c-.41-1.22-1.07-3.21-2-6s-1.85-5.65-2.79-8.63-1.73-5.39-2.34-7.21c-.68,2.77-1.4,5.53-2.18,8.27s-1.54,5.28-2.29,7.62-1.39,4.32-1.93,5.94l-17.67,46.82Z"/><path class="cls-2" d="M586.2,223.08,544,111.77H562l24.47,67.34q2.54,6.9,5.18,15.23a134,134,0,0,1,3.66,13.41h.71q1.22-5.08,4.06-13.46t5.18-15.18l24.48-67.34h18.08L605.49,223.08Z"/><path class="cls-2" d="M761.29,223.08,743,176H683.49l-18.18,47.12H647.85L705.94,74h15.54l57.69,149.09Zm-23.46-62.46L720.46,113.8l-2-6c-.91-2.78-1.84-5.65-2.79-8.63S714,93.79,713.35,92q-1,4.16-2.18,8.27c-.78,2.75-1.54,5.28-2.29,7.62s-1.38,4.32-1.92,5.94l-17.68,46.82Z"/><path class="cls-2" d="M849.85,109.74q19.81,0,30,9.7T890,150.57v72.51H873.31v-71.4q0-13.91-6.34-20.82T847.52,124q-18.49,0-26,10.46T814,164.79v58.29H797.14V111.77h13.61l2.54,16h.92a33.55,33.55,0,0,1,9-9.9,41,41,0,0,1,12.29-6.1A48.63,48.63,0,0,1,849.85,109.74Z"/><path class="cls-2" d="M960.66,211.3a52.4,52.4,0,0,0,8.53-.71,38.53,38.53,0,0,0,7.11-1.73V222a35.86,35.86,0,0,1-8.18,2.23,59.18,59.18,0,0,1-10.2.91,40.37,40.37,0,0,1-16-3.09,24.34,24.34,0,0,1-11.53-10.51Q926,204.09,926,191V125H910.18v-8.22l16-6.6L932.83,86H943v25.8h32.6V125H943v65.51q0,10.47,4.82,15.64T960.66,211.3Z"/><path class="cls-2" d="M1007.48,70.13a10.38,10.38,0,0,1,7.16,2.69q3,2.7,3,8.38c0,3.73-1,6.5-3,8.33a10.24,10.24,0,0,1-7.16,2.74,10.13,10.13,0,0,1-7.26-2.74c-1.93-1.83-2.9-4.6-2.9-8.33s1-6.58,2.9-8.38A10.27,10.27,0,0,1,1007.48,70.13Zm8.23,41.64V223.08H998.85V111.77Z"/></g><path d="M1176,183.58q0,13.2-6.55,22.49a40.87,40.87,0,0,1-18.34,14.17q-11.77,4.88-27.72,4.87a149.09,149.09,0,0,1-15.95-.81,109.25,109.25,0,0,1-13.81-2.33,58.92,58.92,0,0,1-11.07-3.76V201.65a130.24,130.24,0,0,0,18.59,5.84,95.66,95.66,0,0,0,23,2.69q11.17,0,18.89-3a25.13,25.13,0,0,0,11.73-8.63,25.41,25.41,0,0,0,.66-26.31q-3.35-5.13-11.12-9.34a154.43,154.43,0,0,0-21.18-9,110.86,110.86,0,0,1-16.65-7.36,51.14,51.14,0,0,1-12.09-9.09,33.88,33.88,0,0,1-7.36-11.79,43.82,43.82,0,0,1-2.49-15.33q0-11.88,6-20.36a38.21,38.21,0,0,1,16.76-13,62.77,62.77,0,0,1,24.63-4.52,101.86,101.86,0,0,1,22,2.23,97.22,97.22,0,0,1,18.53,6L1167,95.52a119.76,119.76,0,0,0-17-5.59,77,77,0,0,0-18.54-2.23q-9.54,0-16.09,2.79a22.34,22.34,0,0,0-10,7.87,21,21,0,0,0-3.45,12.09q0,7.83,3.3,13t10.56,9.19A139,139,0,0,0,1135,141a137.92,137.92,0,0,1,22.24,10.11,39.08,39.08,0,0,1,13.91,13Q1176,171.8,1176,183.58Z"/><path d="M1245.31,109.94q19.9,0,29.56,8.94t9.65,28.54v75.66h-12.29L1269,206.63h-.81a60.9,60.9,0,0,1-9.75,10.21,35,35,0,0,1-11.73,6.19,55.16,55.16,0,0,1-16.31,2.08,43.31,43.31,0,0,1-18-3.55A27.75,27.75,0,0,1,1200,210.79q-4.53-7.2-4.52-18.28,0-16.65,13.2-25.59t40.22-9.75l19.19-.81v-6.81q0-14.42-6.19-20.21t-17.47-5.79a54.4,54.4,0,0,0-16.66,2.54,114,114,0,0,0-15,6l-5.18-12.79a92.48,92.48,0,0,1,17.27-6.61A75.74,75.74,0,0,1,1245.31,109.94Zm22.55,58.3-17,.71q-20.82.81-29.35,6.81t-8.53,17q0,9.54,5.79,14.11t15.33,4.57q14.83,0,24.28-8.22t9.44-24.68Z"/><path d="M1343.73,223.08l-42.25-111.31h18.08L1344,179.11q2.54,6.9,5.18,15.23a134,134,0,0,1,3.66,13.41h.71q1.22-5.08,4.06-13.46t5.18-15.18l24.48-67.34h18.08L1363,223.08Z"/><path d="M1519.13,167.22a78,78,0,0,1-3.56,24.48,50.08,50.08,0,0,1-10.26,18.18,44.08,44.08,0,0,1-16.19,11.32,56,56,0,0,1-21.49,3.91,52.21,52.21,0,0,1-20.46-3.91,45,45,0,0,1-16.05-11.32,51.46,51.46,0,0,1-10.46-18.18,75,75,0,0,1-3.7-24.48q0-18.27,6.19-31.13a44.49,44.49,0,0,1,17.72-19.6q11.54-6.75,27.48-6.75,15.23,0,26.66,6.8a45.89,45.89,0,0,1,17.77,19.66Q1519.13,149,1519.13,167.22Zm-84.71,0q0,13.41,3.56,23.26a31.33,31.33,0,0,0,11,15.24q7.41,5.39,19.09,5.38t19-5.38a31.22,31.22,0,0,0,11-15.24q3.56-9.84,3.56-23.26t-3.56-23a30.78,30.78,0,0,0-11-15q-7.41-5.28-19.19-5.28-17.37,0-25.44,11.47T1434.42,167.22Z"/><path d="M1556.91,70.13a10.38,10.38,0,0,1,7.16,2.69q3,2.7,3,8.38c0,3.73-1,6.5-3,8.33a10.24,10.24,0,0,1-7.16,2.74,10.13,10.13,0,0,1-7.26-2.74c-1.93-1.83-2.9-4.6-2.9-8.33s1-6.58,2.9-8.38A10.27,10.27,0,0,1,1556.91,70.13Zm8.22,41.64V223.08h-16.85V111.77Z"/><path d="M1642.42,109.94q19.9,0,29.56,8.94t9.65,28.54v75.66h-12.29l-3.25-16.45h-.81a60.9,60.9,0,0,1-9.75,10.21,35,35,0,0,1-11.74,6.19,55,55,0,0,1-16.3,2.08,43.31,43.31,0,0,1-18-3.55,27.75,27.75,0,0,1-12.39-10.77q-4.53-7.2-4.52-18.28,0-16.65,13.2-25.59t40.22-9.75l19.19-.81v-6.81q0-14.42-6.19-20.21t-17.47-5.79a54.35,54.35,0,0,0-16.66,2.54,114,114,0,0,0-15,6l-5.18-12.79a92.48,92.48,0,0,1,17.27-6.61A75.74,75.74,0,0,1,1642.42,109.94Zm22.55,58.3-17,.71q-20.82.81-29.35,6.81t-8.53,17q0,9.54,5.79,14.11t15.33,4.57q14.84,0,24.28-8.22T1665,178.5Z"/></g><g id="Livello_2-2" data-name="Livello 2"><g id="Livello_1-2" data-name="Livello 1-2"><g id="aIBHBp"><path class="cls-3" d="M69.64,251.55a74.69,74.69,0,0,0-3.69,13c-1.79,8.63,3.77,11.87,10.43,12.35,3.48.25,7,.22,10.45.39,1.45.08,2.88.47,3,2.28a2.65,2.65,0,0,1-2.52,2.79H87a94.59,94.59,0,0,1-11,.27c-19.17-1.09-38.34-.68-57.52,0-4.31.15-8.64.17-13,.13a8.82,8.82,0,0,1-3.81-.91A3.4,3.4,0,0,1,0,279.38a3.12,3.12,0,0,1,2.12-2c2.24-.4,4.59-.25,6.86-.49a84.17,84.17,0,0,0,10.72-1.45c8.51-2,14.37-7.62,18.3-15.1,4.19-8,8-16.22,11.65-24.48Q74.06,181,98.3,126.15c11-24.79,21.91-49.62,33-74.38a50.24,50.24,0,0,1,5.75-9.6c2.32-3.06,4.88-3.05,7.28,0a42.28,42.28,0,0,1,5.32,8.69c16.09,35.92,32,71.94,48.08,107.89q18.47,41.34,37.14,82.59a99.07,99.07,0,0,0,15.27,24.8c5.32,6,11.8,9.9,20,10.34,3.2.17,6.41.33,9.6.52a17.8,17.8,0,0,1,2.08.25c1.33.19,2.5.65,2.55,2.22s-1.25,2.19-2.47,2.36a71.65,71.65,0,0,1-8.52.84c-5.23.13-9.6-.2-15-.34h-48.8c-4.45,0-8.9-.41-13.31-.82-1.33-.12-3.36-.13-3.42-2s1.89-2.3,3.5-2.54c4.67-.69,6.08-3.13,4.29-7.47q-23.2-56.15-46.34-112.25c-4-9.83-8-19.72-12-29.57-3-7.35-6-14.64-9-22-.25-.64-.93-1.09-1.41-1.63-.53.58-1.33,1.06-1.58,1.74-4.19,10-8.31,20-12.49,30Q107.22,161.42,96.49,187Z"/><path class="cls-4" d="M184.94,124.82c11.21,7.83,22.82,15.75,34.22,24s22.62,17,32.06,27.59q21.89,24.36,18.14,56.83a55.65,55.65,0,0,1-14.43,31.33c-.24.25-1.45,1.21-2.15,1.87a61.77,61.77,0,0,1-6.37-9c-.35-.58-.72-1.16-1.12-1.72-5.15-7.25-8.61-15.42-12.23-23.49q-23.81-53-47.6-106C185.19,125.51,184.94,124.88,184.94,124.82Z"/><path class="cls-4" d="M175.88,104l-10.65-24a71.07,71.07,0,0,1,16-8.47A107.67,107.67,0,0,1,218,65,204.49,204.49,0,0,1,265.38,70c5.81,1.33,6.24,1.74,6.05,7.52q-.6,18.38-1.33,36.77a15.15,15.15,0,0,1-.86,4.26,3,3,0,0,1-3,2.33,2.82,2.82,0,0,1-2.8-2.66c-.31-1.77-.39-3.58-.58-5.33-.75-7.33-4.39-13.3-9.19-18.62-8.59-9.44-19.54-13.73-32.18-14.64-8.79-.6-17.41,0-25.66,3.26-9.55,3.81-16.55,10.11-19.49,20.29A4.32,4.32,0,0,1,175.88,104Z"/><path class="cls-4" d="M196.91,267.59c6.34,12.4-8,4.23-7.17,14.64-6.65-.4-12.93-.48-19.11-1.24a158.42,158.42,0,0,1-16.73-3.27,9.19,9.19,0,0,1-7.65-9c-.77-11.33-1.33-22.62-2-34-.18-3.61-.12-7.24-.1-10.85a10.48,10.48,0,0,1,.48-2.66c.46-1.67,1.33-2.91,3.34-2.79s2.74,1.54,3.08,3.16c.46,2,.54,4.16,1.07,6.16,3.47,13.15,9.31,24.72,21.54,31.94C178.55,262.62,191.15,266.53,196.91,267.59Z"/></g><path class="cls-4" d="M145.67,40.69C150.58,46.32,156.51,59.62,160,67c1.33,2.74,4,8.37,4.21,8.81,35.25-18.11,70.51-17.43,106.93-7.43,2-11.12,6.57-25.82,15.15-36.31l-5.63-.32c-16,30.41-44.56,11.69-41.77-18.44l-4.5-.48c3.06,41.49-38.4,38.08-40.94,1.61l-4.24.94c8,38.9-20.61,46.32-38.27,24Z"/><circle class="cls-5" cx="146.66" cy="32.85" r="3.91"/><circle class="cls-5" cx="237.35" cy="4.66" r="3.91"/><circle class="cls-5" cx="189.99" cy="7.2" r="3.91"/><circle class="cls-5" cx="286.6" cy="25.58" r="3.91"/></g></g></g></g></g></svg>