<svg xmlns="http://www.w3.org/2000/svg" viewBox="0 0 219.11 212.67"><defs><style>.cls-1,.cls-3{fill:#9b1a20;}.cls-2{fill:#1d1d1b;}.cls-3{stroke:#9b1a20;stroke-miterlimit:10;stroke-width:1.5px;}</style></defs><g id="Livello_2" data-name="Livello 2"><g id="Livello_1-2" data-name="Livello 1"><g id="aIBHBp"><path class="cls-1" d="M52.34,189.25A56.27,56.27,0,0,0,49.57,199c-1.35,6.49,2.83,8.92,7.84,9.28,2.61.19,5.24.17,7.85.3,1.09.06,2.17.35,2.23,1.71a2,2,0,0,1-2.09,2.1,71.94,71.94,0,0,1-8.3.2c-14.41-.82-28.82-.51-43.23,0-3.24.11-6.5.13-9.74.1A6.62,6.62,0,0,1,1.26,212,2.54,2.54,0,0,1,0,210.17a2.34,2.34,0,0,1,1.59-1.51c1.69-.3,3.45-.19,5.16-.37a63.49,63.49,0,0,0,8.06-1.09c6.39-1.52,10.8-5.73,13.75-11.35,3.15-6,6-12.19,8.76-18.4Q55.66,136.26,73.88,95c8.26-18.63,16.47-37.29,24.8-55.9A37.79,37.79,0,0,1,103,31.88c1.74-2.3,3.67-2.29,5.47,0a31.6,31.6,0,0,1,4,6.53c12.09,27,24.07,54.07,36.14,81.09q13.88,31.08,27.91,62.08A74.51,74.51,0,0,0,188,200.22c4,4.54,8.87,7.44,15.05,7.77,2.41.13,4.82.25,7.22.39.52,0,1,.12,1.56.19,1,.14,1.88.49,1.92,1.67s-.94,1.64-1.86,1.77a52.93,52.93,0,0,1-6.4.63c-3.93.1-7.22-.15-11.26-.25-.19,0-.36,0-.54,0-12,0-24.09,0-36.14,0-3.34,0-6.69-.31-10-.62-1-.09-2.53-.1-2.57-1.51s1.42-1.73,2.63-1.91c3.51-.52,4.57-2.35,3.22-5.61Q133.39,160.54,116,118.37c-3-7.39-6-14.82-9-22.23-2.24-5.52-4.48-11-6.77-16.53-.19-.48-.7-.82-1.06-1.23-.4.44-1,.8-1.19,1.31-3.15,7.52-6.25,15.06-9.39,22.58q-8,19.24-16.07,38.47Z"/><path class="cls-2" d="M139,94c8.43,5.89,17.15,11.84,25.72,18s17,12.79,24.1,20.74q16.45,18.31,13.63,42.71A41.83,41.83,0,0,1,191.61,199c-.18.19-1.09.91-1.62,1.41a47.32,47.32,0,0,1-4.79-6.79q-.39-.66-.84-1.29c-3.87-5.45-6.47-11.59-9.19-17.66Q157.28,134.83,139.39,95C139.19,94.52,139,94.05,139,94Z"/><path class="cls-2" d="M132.19,78.37l-8-18a53,53,0,0,1,12-6.37,80.74,80.74,0,0,1,27.62-4.95,153.62,153.62,0,0,1,35.65,3.71c4.37,1,4.69,1.31,4.55,5.65q-.45,13.81-1,27.64a11.32,11.32,0,0,1-.65,3.2A2.24,2.24,0,0,1,200.14,91a2.12,2.12,0,0,1-2.11-2c-.23-1.33-.29-2.69-.43-4-.57-5.51-3.3-10-6.91-14C184.23,63.91,176,60.68,166.5,60c-6.6-.45-13.08,0-19.28,2.45-7.18,2.86-12.44,7.6-14.65,15.25A3.47,3.47,0,0,1,132.19,78.37Z"/><path class="cls-2" d="M148,201.31c4.76,9.32-6,3.18-5.39,11-5-.3-9.72-.36-14.36-.93a117.9,117.9,0,0,1-12.58-2.46,6.91,6.91,0,0,1-5.75-6.76c-.58-8.52-1-17-1.49-25.56-.14-2.71-.09-5.44-.08-8.15a8,8,0,0,1,.36-2c.35-1.26,1-2.19,2.51-2.1s2.06,1.16,2.32,2.38c.34,1.53.4,3.12.8,4.63,2.61,9.88,7,18.58,16.19,24C134.2,197.57,143.67,200.51,148,201.31Z"/></g><path class="cls-2" d="M109.49,30.77C113.18,35,117.63,45,120.22,50.55c1,2.06,3,6.29,3.16,6.62,26.5-13.61,53-13.1,80.37-5.58,1.5-8.36,4.94-19.41,11.39-27.29l-4.23-.24c-12.06,22.85-33.49,8.78-31.4-13.86l-3.38-.36c2.3,31.18-28.86,28.62-30.77,1.21l-3.19.7c6,29.24-15.49,34.82-28.76,18.05Z"/><circle class="cls-3" cx="110.23" cy="24.88" r="2.94"/><circle class="cls-3" cx="178.39" cy="3.69" r="2.94"/><circle class="cls-3" cx="142.8" cy="5.6" r="2.94"/><circle class="cls-3" cx="215.41" cy="19.41" r="2.94"/></g></g></svg>