<?xml version="1.0" encoding="UTF-8" standalone="no"?>
<svg
   xmlns:dc="http://purl.org/dc/elements/1.1/"
   xmlns:cc="http://creativecommons.org/ns#"
   xmlns:rdf="http://www.w3.org/1999/02/22-rdf-syntax-ns#"
   xmlns:svg="http://www.w3.org/2000/svg"
   xmlns="http://www.w3.org/2000/svg"
   xmlns:sodipodi="http://sodipodi.sourceforge.net/DTD/sodipodi-0.dtd"
   xmlns:inkscape="http://www.inkscape.org/namespaces/inkscape"
   version="1.1"
   id="svg2"
   xml:space="preserve"
   width="360.29492"
   height="168.5316"
   viewBox="0 0 360.29492 168.5316"
   sodipodi:docname="CarloAnti.svg"
   inkscape:version="1.0.2-2 (e86c870879, 2021-01-15)"><metadata
     id="metadata227"><rdf:RDF><cc:Work
         rdf:about=""><dc:format>image/svg+xml</dc:format><dc:type
           rdf:resource="http://purl.org/dc/dcmitype/StillImage" /></cc:Work></rdf:RDF></metadata><sodipodi:namedview
     pagecolor="#ffffff"
     bordercolor="#666666"
     borderopacity="1"
     objecttolerance="10"
     gridtolerance="10"
     guidetolerance="10"
     inkscape:pageopacity="0"
     inkscape:pageshadow="2"
     inkscape:window-width="1366"
     inkscape:window-height="705"
     id="namedview225"
     showgrid="false"
     inkscape:zoom="1.1671076"
     inkscape:cx="307.47847"
     inkscape:cy="88.643663"
     inkscape:window-x="-8"
     inkscape:window-y="-8"
     inkscape:window-maximized="1"
     inkscape:current-layer="g12" /><defs
     id="defs6"><clipPath
       clipPathUnits="userSpaceOnUse"
       id="clipPath16"><path
         d="M 0,595.276 H 841.89 V 0 H 0 Z"
         id="path14" /></clipPath></defs><g
     id="g8"
     transform="matrix(1.3333333,0,0,-1.3333333,-61.305732,485.49412)"><g
       id="g10"><g
         id="g12"
         clip-path="url(#clipPath16)"><g
           id="g34"
           transform="translate(795.9092,331.2036)" /><g
           id="g42"
           transform="translate(788.6918,239.634)" /><g
           id="g130"
           transform="translate(720.1597,323.0844)" /><g
           id="g222"
           transform="translate(726.7744,294.953)" /><g
           id="g228"
           transform="translate(732.7641,300.3992)" /><g
           id="g236"
           transform="translate(752.2839,295.7122)" /><g
           id="g244"
           transform="translate(760.1461,299.3976)" /><g
           id="g248"
           transform="translate(766.0366,291.6314)" /><g
           id="g252"
           transform="translate(316.2005,237.7224)"><path
             d="M 0,0 H -17.426 L -80.254,126.398 H 0 Z"
             style="fill:#c3172b;fill-opacity:1;fill-rule:nonzero;stroke:none"
             id="path254" /></g><g
           id="g256"
           transform="translate(63.4053,300.7686)"><path
             d="M 0,0 C 0,34.317 37.673,53.392 63.121,63.352 H -17.426 V -63.046 H 63.576 C 28.506,-63.046 0,-34.16 0,0"
             style="fill:#3fb0e5;fill-opacity:1;fill-rule:nonzero;stroke:none"
             id="path258" /></g><g
           id="g260"
           transform="translate(219.5663,276.0576)"><path
             d="M 0,0 H 32.027 L 16.05,32.977 Z"
             style="fill:#c57815;fill-opacity:1;fill-rule:nonzero;stroke:none"
             id="path262" /></g><g
           id="g264"
           transform="translate(209.2965,254.9409)"><path
             d="M 0,0 -8.392,-17.219 H 60.877 L 52.559,0 Z"
             style="fill:#c57815;fill-opacity:1;fill-rule:nonzero;stroke:none"
             id="path266" /></g><g
           id="g268"
           transform="translate(219.5663,276.0576)"><path
             d="M 0,0 16.05,32.977 32.027,0 Z M 15.566,88.062 -47.189,-38.335 h 28.527 l 8.392,17.218 h 52.559 l 8.319,-17.218 h 28.6 L 16.38,88.062 Z"
             style="fill:#ffffff;fill-opacity:1;fill-rule:nonzero;stroke:none"
             id="path270" /></g><g
           id="g272"
           transform="translate(126.5261,364.1201)"><path
             d="m 0,0 c 14.782,-7.842 29.87,-6.483 42.612,-18.777 l -14.1,-19.233 c -8.295,8.147 -18.254,13.123 -28.736,13.123 -19.531,0 -38.159,-17.345 -38.159,-38.614 0,-21.649 19.307,-38.39 38.084,-38.39 11.161,0 20.814,5.961 28.886,13.876 L 42.612,-107.77 C 31.9,-118.407 18.859,-126.398 0.455,-126.398 H 45.851 L 108.606,0"
             style="fill:#10704f;fill-opacity:1;fill-rule:nonzero;stroke:none"
             id="path274" /></g><g
           id="g276"
           transform="translate(155.1129,276.1053)"><path
             d="m 0,0 c -8.072,-7.915 -17.725,-13.876 -28.886,-13.876 -18.777,0 -38.084,16.741 -38.084,38.39 0,21.269 18.628,38.614 38.159,38.614 10.482,0 20.441,-4.976 28.736,-13.123 l 14.1,19.232 c -12.742,12.295 -26.774,18.554 -42.612,18.778 -34.235,0 -63.121,-29.035 -63.121,-63.352 0,-34.16 28.506,-63.046 63.576,-63.046 18.404,0 31.445,7.99 42.157,18.628 z"
             style="fill:#ffffff;fill-opacity:1;fill-rule:nonzero;stroke:none"
             id="path278" /></g><g
           id="g280"
           transform="translate(325.6098,261.8309)" /><g
           id="g284"
           transform="translate(354.1118,240.6232)" /><g
           id="g288"
           transform="translate(387.0294,240.6232)" /><g
           id="g292"
           transform="translate(400.4946,252.506)" /><g
           id="g300"
           transform="translate(440.1035,252.506)" /><g
           id="g304"
           transform="translate(470.4619,239.7721)" /><g
           id="g308"
           transform="translate(488.0244,239.7721)" /><g
           id="g312"
           transform="translate(501.9413,240.6237)" /><g
           id="g316"
           transform="translate(533.1357,240.5785)" /><g
           id="g320"
           transform="translate(548.3232,252.5236)" /><g
           id="g326"
           transform="translate(587.0947,238.568)" /><g
           id="g330"
           transform="translate(614.9453,240.6232)" /><g
           id="g334"
           transform="translate(638.6298,240.7971)" /><g
           id="g338"
           transform="translate(652.0947,252.5236)" /><g
           id="g342"
           transform="translate(674.9765,255.1984)" /><g
           id="g346"
           transform="translate(686.1465,252.5065)" /><g
           id="g350"
           transform="translate(350.4048,298.0782)" /><g
           id="g364"
           transform="translate(410.772,290.8332)" /><g
           id="g368"
           transform="translate(432.4073,289.0903)" /><g
           id="g372"
           transform="translate(447.4825,275.5473)" /><g
           id="g376"
           transform="translate(475.545,280.3802)" /><g
           id="g380"
           transform="translate(480.3585,279.1956)" /><g
           id="g384"
           transform="translate(512.9971,275.4179)" /><g
           id="g388"
           transform="translate(546.8809,279.6736)" /><g
           id="g394"
           transform="translate(599.8106,298.0782)" /><g
           id="g398"
           transform="translate(604.0162,280.7864)" /><g
           id="g402"
           transform="translate(633.4313,289.0405)" /><g
           id="g406"
           transform="translate(651.0255,279.1956)" /><g
           id="g410"
           transform="translate(677.7755,280.3802)" /><g
           id="g414"
           transform="translate(694.7364,275.4954)" /><g
           id="g418"
           transform="translate(325.5399,335.7682)" /><g
           id="g422"
           transform="translate(404.6085,321.0494)" /><g
           id="g426"
           transform="translate(450.6934,351.0959)" /><g
           id="g432"
           transform="translate(508.1719,329.5754)" /><g
           id="g436"
           transform="translate(578.7237,329.5306)" /><g
           id="g440"
           transform="translate(644.0899,332.0559)" /><g
           id="g444"
           transform="translate(679.7325,310.3141)" /></g></g></g></svg>
