<?xml version="1.0" encoding="UTF-8" standalone="no"?>
<svg
   xmlns:dc="http://purl.org/dc/elements/1.1/"
   xmlns:cc="http://creativecommons.org/ns#"
   xmlns:rdf="http://www.w3.org/1999/02/22-rdf-syntax-ns#"
   xmlns:svg="http://www.w3.org/2000/svg"
   xmlns="http://www.w3.org/2000/svg"
   xmlns:sodipodi="http://sodipodi.sourceforge.net/DTD/sodipodi-0.dtd"
   xmlns:inkscape="http://www.inkscape.org/namespaces/inkscape"
   version="1.1"
   id="svg2"
   xml:space="preserve"
   width="999.90784"
   height="168.5316"
   viewBox="0 0 999.90782 168.5316"
   sodipodi:docname="logoCarloAntiEsteso.svg"
   inkscape:version="1.0.2-2 (e86c870879, 2021-01-15)"><metadata
     id="metadata227"><rdf:RDF><cc:Work
         rdf:about=""><dc:format>image/svg+xml</dc:format><dc:type
           rdf:resource="http://purl.org/dc/dcmitype/StillImage" /></cc:Work></rdf:RDF></metadata><sodipodi:namedview
     pagecolor="#ffffff"
     bordercolor="#666666"
     borderopacity="1"
     objecttolerance="10"
     gridtolerance="10"
     guidetolerance="10"
     inkscape:pageopacity="0"
     inkscape:pageshadow="2"
     inkscape:window-width="1366"
     inkscape:window-height="705"
     id="namedview225"
     showgrid="false"
     inkscape:zoom="1.1671076"
     inkscape:cx="499.95392"
     inkscape:cy="88.643663"
     inkscape:window-x="-8"
     inkscape:window-y="-8"
     inkscape:window-maximized="1"
     inkscape:current-layer="g10" /><defs
     id="defs6"><clipPath
       clipPathUnits="userSpaceOnUse"
       id="clipPath16"><path
         d="M 0,595.276 H 841.89 V 0 H 0 Z"
         id="path14" /></clipPath></defs><g
     id="g8"
     transform="matrix(1.3333333,0,0,-1.3333333,-61.305732,485.49412)"><g
       id="g10"><g
         id="g12"
         clip-path="url(#clipPath16)"><g
           id="g18"
           transform="translate(780.4494,246.3584)"><path
             d="M 0,0 C 0.253,-0.923 0.109,-2.095 -0.251,-2.775 -0.143,-3.344 0.395,-3.61 0.499,-4.195 0.591,-4.71 0.298,-5.138 0.249,-5.738 0.171,-6.732 0.449,-7.423 0.748,-8.082 0.666,-8.242 0.609,-8.428 0.559,-8.619 H 9.606 C 9.435,-8.543 9.27,-8.471 9.116,-8.391 5.243,-6.441 3.662,-1.924 0,0"
             style="fill:#2a3182;fill-opacity:1;fill-rule:nonzero;stroke:none"
             id="path20" /></g><g
           id="g22"
           transform="translate(757.9045,251.0479)"><path
             d="M 0,0 V -0.122 H 0.188 C 0.197,-0.012 0.127,0.02 0,0"
             style="fill:#2a3182;fill-opacity:1;fill-rule:nonzero;stroke:none"
             id="path24" /></g><g
           id="g26"
           transform="translate(775.1407,238.4613)"><path
             d="M 0,0 C 0.277,0.299 0.563,0.575 0.813,0.865 1.082,1.181 2.085,2.464 1.997,2.96 1.963,3.162 0.79,4.324 0.501,4.258 -2.718,3.535 -6.659,2.867 -10.179,2.407 c -1.296,-1.372 -3.72,-1.632 -4.996,-3.024 0.197,-0.023 0.379,-0.06 0.554,-0.105 H -1.486 C -0.681,-0.662 -0.467,-0.509 0,0"
             style="fill:#2a3182;fill-opacity:1;fill-rule:nonzero;stroke:none"
             id="path28" /></g><g
           id="g30"
           transform="translate(758.2803,251.0479)"><path
             d="M 0,0 C 0.155,-0.241 0.091,0.205 0,0"
             style="fill:#2a3182;fill-opacity:1;fill-rule:nonzero;stroke:none"
             id="path32" /></g><g
           id="g34"
           transform="translate(795.9092,331.2036)"><path
             d="m 0,0 c -0.021,8.418 -3.28,16.827 -9.782,23.25 -6.5,6.422 -15.012,9.642 -23.533,9.664 v 0.003 H -87.629 L -87.63,-93.464 h 46.316 c -0.235,0.628 0.404,1.411 1.005,1.524 0.27,0.053 0.57,-0.15 0.874,-0.062 0.301,0.087 0.542,0.465 0.874,0.742 0.921,0.768 1.908,1.487 2.436,2.405 -0.296,0.342 -0.983,0.974 -1.189,1.728 -0.041,0.154 0.038,0.354 0,0.556 -0.164,0.942 -0.627,1.637 -0.062,2.282 0.113,0.073 -0.264,0.186 -0.123,0.493 0.351,0.568 0.207,0.961 0.249,1.911 -0.246,0.498 -0.882,0.57 -1.188,0.928 -0.175,0.208 -0.066,0.452 -0.186,0.679 -0.165,0.315 -0.56,0.384 -0.562,0.741 0.366,0.104 -0.066,0.362 0.124,0.677 0.235,0.303 0.67,0.408 1.001,0.617 0.112,0.172 -0.133,0.417 -0.062,0.742 0.415,0.146 0.672,0.434 1.185,0.615 0.29,0.486 0.56,1.063 1.186,1.112 0.707,0.051 1.559,-0.46 2.125,-0.681 0.707,-1.046 1.409,-2.1 2.184,-3.082 0.118,-0.112 -0.05,-0.158 0,-0.372 0.286,-0.251 0.626,-0.449 0.688,-0.926 0.375,-0.169 0.759,-0.969 0.998,-0.864 0.58,0.795 0.579,1.891 0.126,2.654 -0.451,0.758 -1.398,1.005 -1.436,1.912 -0.017,0.384 0.329,1.101 0.623,1.419 1.046,1.13 2.846,1.161 4.933,1.42 1.043,0.127 2.091,0.5 2.813,0.863 0.994,0.501 1.982,1.596 2.808,1.358 0.296,-0.247 0.436,-0.553 0.626,-0.925 0.22,-0.435 0.046,-0.486 0.123,-0.987 0.04,-0.256 0.2,-0.303 0.188,-0.495 -0.03,-0.503 -0.58,-0.799 -0.375,-1.294 1.017,0.165 1.729,1.17 2.748,1.542 1.271,-0.221 0.602,-1.944 0.186,-2.838 -0.972,-2.099 -3.262,-3.363 -5.619,-3.702 -0.335,-0.944 -1.036,-1.53 -1.437,-2.406 1.466,0.037 2.188,0.844 3.435,0.923 1.365,0.089 2.424,-0.297 3.497,-0.678 0.916,-0.324 1.714,-0.656 2.372,-1.171 2.676,-2.089 4.182,-5.249 6.683,-7.466 0.707,-0.626 1.458,-0.921 2.248,-1.296 0.646,-0.307 1.28,-0.42 2.004,-0.598 H 0.001 V 0"
             style="fill:#2a3182;fill-opacity:1;fill-rule:nonzero;stroke:none"
             id="path36" /></g><g
           id="g38"
           transform="translate(778.7004,239.3259)"><path
             d="m 0,0 c -0.235,-0.305 -0.659,-0.418 -0.812,-0.802 0.37,-0.135 0.657,0.058 0.875,0.247 C 0.024,-0.39 0.142,-0.066 0,0"
             style="fill:#2a3182;fill-opacity:1;fill-rule:nonzero;stroke:none"
             id="path40" /></g><g
           id="g42"
           transform="translate(788.6918,239.634)"><path
             d="m 0,0 c -2.501,2.217 -4.007,5.377 -6.683,7.466 -0.659,0.515 -1.457,0.847 -2.372,1.17 -1.074,0.381 -2.133,0.768 -3.498,0.679 -1.246,-0.08 -1.967,-0.888 -3.433,-0.924 0.401,0.877 1.101,1.463 1.435,2.407 2.358,0.338 4.647,1.602 5.621,3.702 0.415,0.893 1.082,2.617 -0.187,2.837 -1.02,-0.369 -1.731,-1.376 -2.748,-1.541 -0.206,0.494 0.344,0.791 0.375,1.294 0.011,0.193 -0.148,0.239 -0.188,0.494 -0.077,0.501 0.096,0.553 -0.123,0.987 -0.19,0.373 -0.33,0.678 -0.627,0.925 -0.824,0.238 -1.814,-0.856 -2.808,-1.358 -0.721,-0.362 -1.771,-0.733 -2.81,-0.862 -2.089,-0.26 -3.889,-0.29 -4.934,-1.421 -0.296,-0.318 -0.641,-1.032 -0.625,-1.419 0.038,-0.907 0.985,-1.154 1.435,-1.912 0.452,-0.761 0.455,-1.858 -0.124,-2.653 -0.241,-0.103 -0.624,0.695 -0.998,0.864 -0.063,0.476 -0.401,0.675 -0.688,0.926 -0.05,0.212 0.117,0.261 0,0.371 -0.775,0.982 -1.477,2.036 -2.185,3.083 -0.567,0.221 -1.418,0.732 -2.124,0.681 -0.627,-0.049 -0.896,-0.625 -1.187,-1.111 -0.511,-0.182 -0.773,-0.47 -1.185,-0.618 -0.07,-0.323 0.173,-0.568 0.062,-0.74 -0.329,-0.208 -0.766,-0.315 -1,-0.617 -0.19,-0.315 0.24,-0.573 -0.125,-0.678 0.002,-0.356 0.397,-0.425 0.562,-0.74 0.12,-0.228 0.012,-0.471 0.188,-0.679 0.305,-0.358 0.942,-0.431 1.186,-0.926 -0.042,-0.953 0.103,-1.346 -0.249,-1.913 -0.14,-0.307 0.237,-0.419 0.125,-0.493 -0.567,-0.646 -0.104,-1.34 0.061,-2.282 0.038,-0.203 -0.04,-0.402 0,-0.556 0.206,-0.754 0.892,-1.387 1.188,-1.729 -0.529,-0.917 -1.514,-1.636 -2.435,-2.405 -0.332,-0.276 -0.574,-0.654 -0.874,-0.741 -0.305,-0.087 -0.604,0.114 -0.876,0.062 -0.6,-0.113 -1.239,-0.895 -1.003,-1.525 h 5.679 c -0.175,0.045 -0.357,0.082 -0.555,0.107 1.277,1.391 3.701,1.649 4.997,3.023 3.52,0.459 7.461,1.129 10.68,1.851 0.289,0.065 1.462,-1.097 1.496,-1.297 0.088,-0.498 -0.915,-1.779 -1.185,-2.097 -0.249,-0.289 -0.535,-0.565 -0.812,-0.864 -0.467,-0.508 -0.681,-0.661 -1.486,-0.723 h 7.353 c 0.051,0.191 0.107,0.378 0.19,0.537 -0.3,0.659 -0.578,1.35 -0.499,2.347 0.047,0.596 0.341,1.027 0.25,1.539 -0.105,0.586 -0.643,0.853 -0.751,1.421 0.361,0.683 0.505,1.852 0.249,2.775 3.665,-1.925 5.246,-6.44 9.119,-8.391 0.154,-0.077 0.318,-0.152 0.489,-0.228 H 4.251 C 3.527,-1.716 2.893,-1.603 2.248,-1.297 1.459,-0.921 0.708,-0.626 0,0 m -30.787,11.292 v 0.123 c 0.126,0.02 0.197,-0.013 0.188,-0.123 z m 0.375,0.123 c 0.092,0.203 0.155,-0.241 0,0 M -9.929,-0.863 c -0.218,-0.189 -0.504,-0.381 -0.875,-0.248 0.154,0.385 0.577,0.498 0.813,0.803 0.142,-0.067 0.024,-0.388 0.062,-0.555"
             style="fill:#ffffff;fill-opacity:1;fill-rule:nonzero;stroke:none"
             id="path44" /></g><g
           id="g46"
           transform="translate(719.3684,346.6387)"><path
             d="m 0,0 c -1.009,0 -1.893,0.389 -2.65,1.166 -0.831,0.843 -1.247,1.932 -1.247,3.268 0,1.275 0.389,2.353 1.169,3.234 0.756,0.829 1.656,1.243 2.695,1.243 1.054,0 1.959,-0.406 2.717,-1.222 C 3.464,6.83 3.853,5.749 3.853,4.444 3.853,3.088 3.431,1.987 2.583,1.143 1.833,0.381 0.973,0 0,0 m -0.066,0.813 c 0.824,0 1.524,0.343 2.105,1.025 0.585,0.696 0.879,1.565 0.879,2.606 0,0.506 -0.071,0.975 -0.211,1.408 C 2.565,6.284 2.354,6.677 2.071,7.029 1.507,7.742 0.809,8.097 -0.022,8.097 -0.845,8.097 -1.544,7.742 -2.116,7.029 -2.679,6.332 -2.962,5.463 -2.962,4.423 c 0,-1.086 0.297,-1.97 0.891,-2.652 0.556,-0.638 1.226,-0.958 2.005,-0.958"
             style="fill:#ffffff;fill-opacity:1;fill-rule:nonzero;stroke:none"
             id="path48" /></g><g
           id="g50"
           transform="translate(727.3629,352.667)"><path
             d="m 0,0 v -0.793 c -0.081,0.03 -0.148,0.054 -0.198,0.071 -0.052,0.019 -0.097,0.032 -0.136,0.039 -0.037,0.008 -0.075,0.014 -0.117,0.017 -0.039,0.004 -0.093,0.005 -0.161,0.005 -0.542,0 -0.988,-0.26 -1.334,-0.78 -0.298,-0.478 -0.447,-1.008 -0.447,-1.595 V -5.887 H -3.195 V 0 h 0.735 l 0.055,-1.012 c 0.186,0.308 0.362,0.527 0.524,0.66 0.336,0.271 0.735,0.407 1.203,0.407 0.126,0 0.244,-0.004 0.35,-0.012 C -0.22,0.037 -0.109,0.022 0,0"
             style="fill:#ffffff;fill-opacity:1;fill-rule:nonzero;stroke:none"
             id="path52" /></g><g
           id="g54"
           transform="translate(732.4974,352.0072)"><path
             d="m 0,0 0.224,0.659 h 0.59 v -5.325 c 0,-0.916 -0.227,-1.612 -0.68,-2.088 -0.454,-0.477 -1.155,-0.716 -2.105,-0.716 -0.385,0 -0.75,0.068 -1.097,0.204 -0.345,0.135 -0.707,0.346 -1.085,0.632 v 0.969 c 0.236,-0.22 0.471,-0.407 0.7,-0.557 0.231,-0.15 0.459,-0.266 0.681,-0.345 0.26,-0.098 0.527,-0.144 0.801,-0.144 0.587,0 1.043,0.131 1.369,0.396 C -0.2,-5.992 0,-5.475 0,-4.764 v 0.725 C -0.282,-4.5 -0.631,-4.826 -1.046,-5.017 -1.327,-5.148 -1.64,-5.215 -1.983,-5.215 c -0.734,0 -1.35,0.29 -1.847,0.87 -0.49,0.594 -0.734,1.28 -0.734,2.058 0,0.776 0.23,1.461 0.69,2.056 0.534,0.682 1.217,1.023 2.048,1.023 0.416,0 0.808,-0.099 1.179,-0.297 0.114,-0.067 0.224,-0.14 0.331,-0.22 C -0.209,0.194 -0.103,0.103 0,0 m 0,-2.377 v 1.618 c -0.126,0.139 -0.253,0.257 -0.382,0.352 -0.133,0.095 -0.261,0.179 -0.386,0.253 -0.149,0.081 -0.3,0.14 -0.456,0.176 -0.157,0.036 -0.316,0.055 -0.48,0.055 -0.555,0 -1.017,-0.194 -1.381,-0.583 -0.409,-0.441 -0.61,-1.019 -0.61,-1.738 0,-0.653 0.168,-1.192 0.511,-1.618 0.334,-0.418 0.767,-0.626 1.303,-0.626 0.528,0 0.971,0.201 1.337,0.603 C -0.182,-3.494 0,-2.991 0,-2.377"
             style="fill:#ffffff;fill-opacity:1;fill-rule:nonzero;stroke:none"
             id="path56" /></g><g
           id="g58"
           transform="translate(738.9786,350.5872)"><path
             d="m 0,0 v -2.773 c 0,-0.124 0.029,-0.232 0.083,-0.322 0.056,-0.094 0.158,-0.139 0.307,-0.139 0.044,0 0.082,0.002 0.11,0.005 0.031,0.005 0.061,0.009 0.09,0.017 0.043,0.014 0.083,0.029 0.119,0.043 0.031,0.015 0.059,0.028 0.081,0.034 V -3.752 C 0.658,-3.795 0.525,-3.827 0.39,-3.844 0.257,-3.863 0.152,-3.872 0.076,-3.872 c -0.376,0 -0.626,0.1 -0.744,0.297 -0.096,0.125 -0.146,0.392 -0.146,0.802 -0.096,-0.161 -0.192,-0.302 -0.288,-0.423 -0.097,-0.12 -0.194,-0.222 -0.29,-0.302 -0.387,-0.302 -0.834,-0.451 -1.348,-0.451 -0.54,0 -1.014,0.158 -1.414,0.472 -0.415,0.339 -0.623,0.768 -0.623,1.288 0,0.653 0.334,1.134 1.002,1.442 0.245,0.118 0.569,0.22 0.974,0.307 0.405,0.089 0.89,0.168 1.453,0.244 l 0.534,0.054 c 0,0.513 -0.13,0.914 -0.396,1.203 -0.262,0.291 -0.65,0.436 -1.163,0.436 -0.192,0 -0.383,-0.025 -0.573,-0.072 C -3.135,1.376 -3.326,1.303 -3.519,1.199 -3.622,1.141 -3.737,1.071 -3.864,0.99 -3.991,0.91 -4.127,0.807 -4.276,0.683 v 0.902 c 0.631,0.417 1.311,0.627 2.039,0.627 0.741,0 1.312,-0.231 1.714,-0.694 C -0.175,1.115 0,0.609 0,0 m -0.814,-1.155 v 0.352 l -0.377,-0.044 c -0.928,-0.094 -1.582,-0.224 -1.96,-0.384 -0.505,-0.199 -0.759,-0.522 -0.759,-0.968 0,-0.132 0.031,-0.259 0.09,-0.382 0.06,-0.121 0.14,-0.228 0.245,-0.322 0.106,-0.097 0.232,-0.174 0.385,-0.232 0.15,-0.059 0.32,-0.088 0.506,-0.088 0.506,0 0.947,0.202 1.325,0.604 0.365,0.413 0.545,0.9 0.545,1.464"
             style="fill:#ffffff;fill-opacity:1;fill-rule:nonzero;stroke:none"
             id="path60" /></g><g
           id="g62"
           transform="translate(745.8148,350.719)"><path
             d="m 0,0 v -3.938 h -0.802 v 3.883 c 0,0.411 -0.151,0.748 -0.454,1.013 -0.306,0.271 -0.67,0.407 -1.093,0.407 -0.564,0 -1.05,-0.231 -1.459,-0.694 -0.409,-0.469 -0.611,-0.997 -0.611,-1.583 v -3.026 h -0.757 v 5.886 h 0.7 l 0.034,-1.101 c 0.2,0.302 0.435,0.551 0.702,0.749 0.437,0.322 0.931,0.484 1.481,0.484 0.638,0 1.172,-0.192 1.603,-0.572 C -0.218,1.134 0,0.632 0,0"
             style="fill:#ffffff;fill-opacity:1;fill-rule:nonzero;stroke:none"
             id="path64" /></g><g
           id="g66"
           transform="translate(747.1956,355.1545)"><path
             d="m 0,0 c 0.156,0 0.287,-0.052 0.391,-0.156 0.104,-0.101 0.156,-0.248 0.156,-0.439 0,-0.19 -0.049,-0.339 -0.146,-0.44 C 0.306,-1.137 0.171,-1.189 0,-1.189 c -0.17,0 -0.301,0.058 -0.395,0.175 -0.091,0.117 -0.137,0.254 -0.137,0.408 0,0.242 0.054,0.404 0.165,0.484 C -0.256,-0.041 -0.133,0 0,0 m -0.389,-2.488 h 0.802 v -5.887 h -0.802 z"
             style="fill:#ffffff;fill-opacity:1;fill-rule:nonzero;stroke:none"
             id="path68" /></g><g
           id="g70"
           transform="translate(748.5214,347.2868)"><path
             d="M 0,0 V 0.959 C 0.461,0.591 0.928,0.334 1.403,0.188 1.545,0.151 1.682,0.124 1.816,0.105 1.947,0.087 2.086,0.078 2.226,0.078 2.68,0.078 3.055,0.18 3.352,0.385 3.656,0.605 3.808,0.852 3.808,1.122 3.808,1.27 3.753,1.42 3.641,1.574 3.484,1.765 3.069,1.937 2.394,2.091 1.592,2.289 1.057,2.453 0.79,2.586 0.27,2.879 0.011,3.29 0.011,3.818 0.011,4.309 0.226,4.713 0.656,5.029 1.094,5.35 1.64,5.513 2.292,5.513 2.591,5.513 2.858,5.486 3.096,5.435 3.333,5.385 3.556,5.316 3.762,5.231 3.972,5.148 4.165,5.043 4.343,4.918 V 3.961 C 4.031,4.217 3.705,4.421 3.363,4.571 3.022,4.721 2.66,4.798 2.284,4.798 1.906,4.798 1.578,4.713 1.303,4.544 1.021,4.375 0.881,4.156 0.881,3.885 0.881,3.526 1.213,3.239 1.882,3.027 2.194,2.938 2.502,2.85 2.806,2.762 3.11,2.674 3.419,2.586 3.729,2.498 4.406,2.213 4.744,1.779 4.744,1.198 4.744,0.709 4.51,0.275 4.041,-0.098 3.567,-0.465 2.978,-0.648 2.272,-0.648 1.961,-0.648 1.655,-0.616 1.359,-0.549 0.885,-0.447 0.431,-0.264 0,0"
             style="fill:#ffffff;fill-opacity:1;fill-rule:nonzero;stroke:none"
             id="path72" /></g><g
           id="g74"
           transform="translate(763.0302,350.5558)"><path
             d="m 0,0 v -3.776 h -0.812 v 3.961 c 0,0.418 -0.146,0.757 -0.434,1.012 -0.246,0.221 -0.535,0.331 -0.87,0.331 -0.497,0 -0.941,-0.227 -1.336,-0.683 -0.385,-0.447 -0.579,-1 -0.579,-1.66 v -2.961 h -0.813 v 3.961 c 0,0.397 -0.136,0.716 -0.412,0.958 -0.26,0.256 -0.557,0.385 -0.89,0.385 -0.483,0 -0.914,-0.213 -1.293,-0.638 -0.415,-0.47 -0.623,-1.049 -0.623,-1.738 v -2.928 h -0.812 v 5.887 h 0.756 l 0.034,-0.935 c 0.215,0.344 0.524,0.616 0.925,0.814 0.356,0.169 0.717,0.254 1.079,0.254 0.564,0 1.039,-0.162 1.425,-0.485 0.283,-0.242 0.461,-0.485 0.534,-0.726 0.149,0.271 0.36,0.516 0.636,0.737 0.432,0.316 0.906,0.474 1.425,0.474 0.632,0 1.122,-0.187 1.469,-0.561 C -0.196,1.257 0,0.694 0,0"
             style="fill:#ffffff;fill-opacity:1;fill-rule:nonzero;stroke:none"
             id="path76" /></g><g
           id="g78"
           transform="translate(766.8819,346.6387)"><path
             d="m 0,0 c -0.763,0 -1.435,0.275 -2.015,0.825 -0.615,0.58 -0.923,1.331 -0.923,2.256 0,0.872 0.271,1.601 0.813,2.188 0.558,0.594 1.243,0.892 2.059,0.892 0.81,0 1.492,-0.298 2.05,-0.892 C 2.534,4.682 2.807,3.956 2.807,3.091 2.807,2.182 2.509,1.43 1.918,0.836 1.367,0.279 0.729,0 0,0 m -0.077,0.726 c 0.535,0 1.01,0.22 1.425,0.66 0.401,0.447 0.603,1.015 0.603,1.705 0,0.711 -0.216,1.291 -0.646,1.738 C 0.911,5.24 0.454,5.446 -0.066,5.446 -0.6,5.446 -1.056,5.232 -1.435,4.808 -1.85,4.338 -2.059,3.761 -2.059,3.081 c 0,-0.69 0.205,-1.267 0.615,-1.728 0.376,-0.418 0.833,-0.627 1.367,-0.627"
             style="fill:#ffffff;fill-opacity:1;fill-rule:nonzero;stroke:none"
             id="path80" /></g><g
           id="g82"
           transform="translate(719.6913,341.6551)"><path
             d="M 0,0 H 0.857 V -8.625 H 0.089 l -0.077,0.956 c -0.105,-0.147 -0.209,-0.277 -0.313,-0.391 -0.102,-0.113 -0.207,-0.21 -0.311,-0.29 -0.37,-0.279 -0.802,-0.42 -1.292,-0.42 -0.764,0 -1.399,0.294 -1.904,0.882 -0.498,0.585 -0.747,1.297 -0.747,2.133 0,0.866 0.265,1.603 0.791,2.212 0.535,0.623 1.204,0.935 2.004,0.935 0.335,0 0.647,-0.058 0.934,-0.176 0.107,-0.044 0.226,-0.103 0.363,-0.176 0.138,-0.074 0.292,-0.162 0.463,-0.264 m 0,-2.553 v 1.696 c -0.348,0.299 -0.654,0.501 -0.913,0.604 -0.259,0.103 -0.512,0.153 -0.757,0.153 -0.609,0 -1.102,-0.251 -1.481,-0.757 -0.355,-0.477 -0.535,-1.031 -0.535,-1.663 0,-0.675 0.196,-1.235 0.59,-1.682 0.365,-0.411 0.795,-0.617 1.292,-0.617 0.49,0 0.915,0.212 1.272,0.638 C -0.177,-6.979 0,-6.437 0,-5.777"
             style="fill:#ffffff;fill-opacity:1;fill-rule:nonzero;stroke:none"
             id="path84" /></g><g
           id="g86"
           transform="translate(721.8746,341.4026)"><path
             d="M 0,0 C 0.154,0 0.284,-0.053 0.39,-0.155 0.494,-0.257 0.546,-0.405 0.546,-0.594 0.546,-0.785 0.498,-0.934 0.4,-1.035 0.304,-1.137 0.17,-1.189 0,-1.189 c -0.172,0 -0.302,0.058 -0.396,0.176 -0.092,0.117 -0.139,0.254 -0.139,0.407 0,0.242 0.057,0.404 0.168,0.484 C -0.257,-0.042 -0.134,0 0,0 M -0.39,-2.488 H 0.413 V -8.374 H -0.39 Z"
             style="fill:#ffffff;fill-opacity:1;fill-rule:nonzero;stroke:none"
             id="path88" /></g><g
           id="g90"
           transform="translate(726.9628,341.6545)"><path
             d="M 0,0 H 5.433 V -0.76 H 0.881 v -3.2 H 5.245 V -4.665 H 0.881 v -3.96 H 0"
             style="fill:#ffffff;fill-opacity:1;fill-rule:nonzero;stroke:none"
             id="path92" /></g><g
           id="g94"
           transform="translate(736.1385,332.8862)"><path
             d="M 0,0 C -0.765,0 -1.437,0.276 -2.016,0.824 -2.632,1.405 -2.94,2.156 -2.94,3.08 c 0,0.874 0.272,1.602 0.812,2.189 0.558,0.594 1.244,0.892 2.061,0.892 0.809,0 1.493,-0.298 2.049,-0.892 C 2.531,4.682 2.807,3.956 2.807,3.092 2.807,2.181 2.508,1.431 1.915,0.837 1.364,0.278 0.726,0 0,0 m -0.077,0.726 c 0.534,0 1.008,0.219 1.425,0.659 0.4,0.449 0.602,1.017 0.602,1.707 0,0.71 -0.218,1.29 -0.646,1.737 -0.395,0.411 -0.851,0.617 -1.371,0.617 -0.534,0 -0.99,-0.214 -1.37,-0.638 -0.416,-0.47 -0.624,-1.045 -0.624,-1.728 0,-0.689 0.204,-1.265 0.614,-1.726 0.378,-0.419 0.833,-0.628 1.37,-0.628"
             style="fill:#ffffff;fill-opacity:1;fill-rule:nonzero;stroke:none"
             id="path96" /></g><g
           id="g98"
           transform="translate(743.043,338.915)"><path
             d="m 0,0 v -0.792 c -0.083,0.029 -0.149,0.053 -0.201,0.071 -0.052,0.019 -0.097,0.031 -0.134,0.038 -0.036,0.008 -0.075,0.014 -0.118,0.017 -0.041,0.003 -0.094,0.006 -0.161,0.006 -0.54,0 -0.986,-0.26 -1.336,-0.78 -0.295,-0.479 -0.444,-1.009 -0.444,-1.596 V -5.885 H -3.197 V 0 h 0.736 l 0.056,-1.012 c 0.184,0.308 0.36,0.528 0.523,0.661 0.334,0.27 0.736,0.407 1.202,0.407 0.127,0 0.243,-0.003 0.351,-0.012 C -0.221,0.037 -0.112,0.022 0,0"
             style="fill:#ffffff;fill-opacity:1;fill-rule:nonzero;stroke:none"
             id="path100" /></g><g
           id="g102"
           transform="translate(752.642,336.8039)"><path
             d="m 0,0 v -3.775 h -0.813 v 3.961 c 0,0.418 -0.146,0.755 -0.434,1.011 -0.245,0.221 -0.536,0.332 -0.868,0.332 -0.498,0 -0.944,-0.228 -1.338,-0.683 -0.385,-0.448 -0.578,-1 -0.578,-1.662 v -2.959 h -0.814 v 3.961 c 0,0.396 -0.137,0.715 -0.411,0.957 -0.26,0.256 -0.557,0.386 -0.891,0.386 -0.483,0 -0.914,-0.214 -1.292,-0.639 -0.417,-0.469 -0.624,-1.049 -0.624,-1.738 v -2.927 h -0.812 v 5.886 h 0.756 l 0.034,-0.935 c 0.216,0.345 0.524,0.615 0.925,0.814 0.356,0.169 0.716,0.253 1.079,0.253 0.565,0 1.04,-0.161 1.426,-0.483 0.282,-0.243 0.461,-0.485 0.534,-0.726 0.148,0.27 0.361,0.516 0.636,0.736 0.43,0.316 0.904,0.473 1.423,0.473 0.633,0 1.123,-0.187 1.471,-0.56 C -0.197,1.257 0,0.695 0,0"
             style="fill:#ffffff;fill-opacity:1;fill-rule:nonzero;stroke:none"
             id="path104" /></g><g
           id="g106"
           transform="translate(758.3431,336.8362)"><path
             d="m 0,0 v -2.773 c 0,-0.124 0.029,-0.232 0.083,-0.323 0.055,-0.093 0.158,-0.138 0.307,-0.138 0.045,0 0.081,10e-4 0.11,0.005 0.03,0.004 0.059,0.009 0.09,0.017 0.044,0.013 0.083,0.029 0.118,0.042 0.031,0.016 0.06,0.027 0.083,0.035 V -3.753 C 0.656,-3.796 0.525,-3.828 0.39,-3.845 0.255,-3.863 0.152,-3.873 0.078,-3.873 c -0.379,0 -0.628,0.099 -0.747,0.298 -0.095,0.124 -0.145,0.392 -0.145,0.802 C -0.911,-2.935 -1.007,-3.076 -1.103,-3.196 -1.199,-3.317 -1.295,-3.418 -1.392,-3.498 -1.779,-3.8 -2.227,-3.95 -2.74,-3.95 c -0.542,0 -1.014,0.158 -1.414,0.474 -0.416,0.337 -0.624,0.766 -0.624,1.287 0,0.653 0.334,1.132 1.003,1.441 0.245,0.117 0.569,0.22 0.973,0.307 0.405,0.089 0.89,0.168 1.455,0.244 l 0.533,0.054 c 0,0.514 -0.132,0.914 -0.394,1.203 -0.263,0.291 -0.652,0.436 -1.165,0.436 -0.192,0 -0.383,-0.025 -0.574,-0.072 C -3.135,1.376 -3.326,1.301 -3.519,1.198 -3.623,1.14 -3.738,1.07 -3.863,0.99 -3.992,0.909 -4.128,0.807 -4.276,0.682 v 0.901 c 0.63,0.418 1.31,0.628 2.037,0.628 0.743,0 1.315,-0.231 1.716,-0.693 C -0.175,1.115 0,0.608 0,0 m -0.814,-1.155 v 0.351 l -0.377,-0.044 c -0.927,-0.094 -1.582,-0.223 -1.961,-0.384 -0.506,-0.199 -0.756,-0.522 -0.756,-0.968 0,-0.132 0.029,-0.258 0.089,-0.381 0.058,-0.12 0.141,-0.229 0.243,-0.323 0.104,-0.095 0.232,-0.173 0.385,-0.231 0.153,-0.059 0.322,-0.089 0.506,-0.089 0.506,0 0.948,0.202 1.326,0.605 0.364,0.412 0.545,0.899 0.545,1.464"
             style="fill:#ffffff;fill-opacity:1;fill-rule:nonzero;stroke:none"
             id="path108" /></g><g
           id="g110"
           transform="translate(760.0788,338.167)"><path
             d="M 0,0 V 0.748 H 4.744 V 0.088 L 0.747,-4.489 c 0.148,0 0.39,0.01 0.723,0.033 0.163,0.009 0.311,0.012 0.441,0.017 0.129,0.003 0.247,0.005 0.35,0.005 H 4.9 v -0.703 h -5.111 v 0.648 L 3.766,0.088 C 3.571,0.073 3.379,0.062 3.185,0.055 2.992,0.048 2.793,0.037 2.584,0.022 2.377,0.015 2.193,0.009 2.033,0.005 1.874,0.002 1.735,0 1.616,0"
             style="fill:#ffffff;fill-opacity:1;fill-rule:nonzero;stroke:none"
             id="path112" /></g><g
           id="g114"
           transform="translate(766.1931,341.4026)"><path
             d="m 0,0 c 0.155,0 0.287,-0.053 0.388,-0.155 0.106,-0.102 0.156,-0.25 0.156,-0.439 0,-0.191 -0.047,-0.34 -0.142,-0.441 C 0.304,-1.137 0.171,-1.189 0,-1.189 c -0.171,0 -0.303,0.058 -0.396,0.176 -0.093,0.117 -0.137,0.254 -0.137,0.407 0,0.242 0.054,0.404 0.166,0.484 C -0.256,-0.042 -0.134,0 0,0 M -0.39,-2.488 H 0.413 V -8.374 H -0.39 Z"
             style="fill:#ffffff;fill-opacity:1;fill-rule:nonzero;stroke:none"
             id="path116" /></g><g
           id="g118"
           transform="translate(770.4139,332.8862)"><path
             d="M 0,0 C -0.765,0 -1.437,0.276 -2.016,0.824 -2.632,1.405 -2.94,2.156 -2.94,3.08 c 0,0.874 0.271,1.602 0.814,2.189 0.556,0.594 1.243,0.892 2.059,0.892 0.809,0 1.493,-0.298 2.049,-0.892 C 2.53,4.682 2.805,3.956 2.805,3.092 2.805,2.181 2.508,1.431 1.914,0.837 1.365,0.278 0.726,0 0,0 m -0.078,0.726 c 0.535,0 1.01,0.219 1.425,0.659 0.401,0.449 0.6,1.017 0.6,1.707 0,0.71 -0.216,1.29 -0.644,1.737 -0.395,0.411 -0.851,0.617 -1.37,0.617 -0.535,0 -0.99,-0.214 -1.37,-0.638 -0.414,-0.47 -0.625,-1.045 -0.625,-1.728 0,-0.689 0.205,-1.265 0.614,-1.726 0.377,-0.419 0.834,-0.628 1.37,-0.628"
             style="fill:#ffffff;fill-opacity:1;fill-rule:nonzero;stroke:none"
             id="path120" /></g><g
           id="g122"
           transform="translate(779.3011,336.9681)"><path
             d="m 0,0 v -3.938 h -0.802 v 3.882 c 0,0.411 -0.154,0.749 -0.458,1.013 -0.304,0.272 -0.668,0.407 -1.092,0.407 -0.562,0 -1.05,-0.231 -1.458,-0.693 -0.408,-0.469 -0.612,-0.999 -0.612,-1.584 v -3.025 h -0.757 v 5.884 h 0.702 l 0.033,-1.099 c 0.199,0.301 0.434,0.55 0.702,0.748 0.437,0.322 0.932,0.484 1.479,0.484 0.64,0 1.174,-0.191 1.605,-0.571 C -0.219,1.133 0,0.631 0,0"
             style="fill:#ffffff;fill-opacity:1;fill-rule:nonzero;stroke:none"
             id="path124" /></g><g
           id="g126"
           transform="translate(785.5796,336.209)"><path
             d="m 0,0 h -4.532 c 0,-0.843 0.199,-1.487 0.595,-1.932 0.397,-0.443 0.92,-0.665 1.566,-0.665 0.489,0 0.961,0.155 1.414,0.463 0.126,0.081 0.259,0.181 0.402,0.302 0.138,0.121 0.292,0.262 0.455,0.424 v -0.957 c -0.179,-0.132 -0.344,-0.249 -0.494,-0.347 -0.152,-0.099 -0.297,-0.182 -0.429,-0.248 -0.468,-0.242 -0.938,-0.362 -1.405,-0.362 -0.809,0 -1.494,0.275 -2.06,0.825 -0.608,0.578 -0.912,1.33 -0.912,2.254 0,0.874 0.275,1.602 0.823,2.189 0.558,0.595 1.243,0.893 2.061,0.893 0.795,0 1.426,-0.287 1.893,-0.859 C -0.207,1.459 0,0.8 0,0 m -4.42,0.672 h 3.485 c -0.088,0.498 -0.279,0.869 -0.574,1.116 -0.293,0.245 -0.649,0.368 -1.063,0.368 -0.461,0 -0.85,-0.143 -1.17,-0.429 C -4.038,1.463 -4.265,1.112 -4.42,0.672"
             style="fill:#ffffff;fill-opacity:1;fill-rule:nonzero;stroke:none"
             id="path128" /></g><g
           id="g130"
           transform="translate(720.1597,323.0844)"><path
             d="m 0,0 v -2.774 c 0,-0.124 0.026,-0.233 0.083,-0.323 0.056,-0.092 0.158,-0.137 0.306,-0.137 0.046,0 0.082,10e-4 0.111,0.004 0.029,0.003 0.06,0.01 0.09,0.018 0.044,0.013 0.082,0.028 0.118,0.043 0.033,0.015 0.059,0.026 0.082,0.034 V -3.752 C 0.658,-3.796 0.523,-3.828 0.389,-3.845 0.257,-3.863 0.151,-3.874 0.078,-3.874 c -0.378,0 -0.628,0.1 -0.746,0.298 -0.097,0.124 -0.145,0.392 -0.145,0.802 -0.097,-0.16 -0.194,-0.301 -0.29,-0.422 C -1.2,-3.317 -1.297,-3.417 -1.392,-3.499 -1.779,-3.8 -2.228,-3.95 -2.739,-3.95 c -0.543,0 -1.015,0.157 -1.416,0.473 -0.415,0.338 -0.622,0.766 -0.622,1.287 0,0.652 0.335,1.133 1.001,1.442 0.245,0.117 0.571,0.22 0.975,0.308 0.404,0.087 0.889,0.167 1.453,0.243 l 0.535,0.053 c 0,0.513 -0.133,0.915 -0.397,1.204 -0.261,0.291 -0.65,0.435 -1.163,0.435 -0.193,0 -0.382,-0.023 -0.574,-0.071 C -3.136,1.376 -3.327,1.301 -3.519,1.198 -3.624,1.14 -3.738,1.07 -3.865,0.99 -3.991,0.908 -4.127,0.805 -4.276,0.682 v 0.902 c 0.629,0.418 1.309,0.627 2.038,0.627 0.742,0 1.313,-0.231 1.713,-0.693 C -0.174,1.115 0,0.608 0,0 m -0.813,-1.155 v 0.351 L -1.191,-0.848 C -2.12,-0.943 -2.773,-1.071 -3.151,-1.232 -3.657,-1.431 -3.91,-1.754 -3.91,-2.2 c 0,-0.132 0.031,-0.258 0.09,-0.381 0.06,-0.121 0.14,-0.229 0.246,-0.323 0.104,-0.097 0.233,-0.174 0.382,-0.231 0.154,-0.06 0.321,-0.088 0.507,-0.088 0.505,0 0.948,0.202 1.326,0.604 0.365,0.412 0.546,0.898 0.546,1.464"
             style="fill:#ffffff;fill-opacity:1;fill-rule:nonzero;stroke:none"
             id="path132" /></g><g
           id="g134"
           transform="translate(726.6851,324.6463)"><path
             d="m 0,0 v -1.034 c -0.417,0.388 -0.843,0.666 -1.281,0.836 -0.125,0.051 -0.256,0.086 -0.39,0.104 -0.134,0.018 -0.268,0.028 -0.401,0.028 -0.618,0 -1.122,-0.227 -1.515,-0.682 -0.391,-0.469 -0.589,-1.027 -0.589,-1.673 0,-0.659 0.203,-1.224 0.613,-1.693 0.408,-0.449 0.919,-0.671 1.535,-0.671 0.389,0 0.74,0.082 1.058,0.248 0.32,0.165 0.643,0.411 0.97,0.741 L 0,-4.84 c -0.395,-0.242 -0.75,-0.415 -1.069,-0.518 -0.32,-0.103 -0.643,-0.152 -0.97,-0.152 -0.831,0 -1.544,0.292 -2.137,0.878 -0.579,0.61 -0.868,1.343 -0.868,2.202 0,0.842 0.285,1.568 0.857,2.177 0.578,0.602 1.3,0.902 2.159,0.902 0.439,0 0.849,-0.074 1.225,-0.219 C -0.58,0.349 -0.312,0.206 0,0"
             style="fill:#ffffff;fill-opacity:1;fill-rule:nonzero;stroke:none"
             id="path136" /></g><g
           id="g138"
           transform="translate(732.4643,324.6463)"><path
             d="m 0,0 v -1.034 c -0.417,0.388 -0.844,0.666 -1.281,0.836 -0.125,0.051 -0.256,0.086 -0.391,0.104 -0.132,0.018 -0.268,0.028 -0.4,0.028 -0.616,0 -1.12,-0.227 -1.514,-0.682 -0.394,-0.469 -0.59,-1.027 -0.59,-1.673 0,-0.659 0.204,-1.224 0.611,-1.693 0.41,-0.449 0.921,-0.671 1.537,-0.671 0.388,0 0.739,0.082 1.058,0.248 0.32,0.165 0.643,0.411 0.97,0.741 L 0,-4.84 c -0.395,-0.242 -0.751,-0.415 -1.069,-0.518 -0.32,-0.103 -0.642,-0.152 -0.97,-0.152 -0.831,0 -1.544,0.292 -2.137,0.878 -0.579,0.61 -0.869,1.343 -0.869,2.202 0,0.842 0.285,1.568 0.856,2.177 0.581,0.602 1.302,0.902 2.161,0.902 0.44,0 0.848,-0.074 1.226,-0.219 C -0.58,0.349 -0.312,0.206 0,0"
             style="fill:#ffffff;fill-opacity:1;fill-rule:nonzero;stroke:none"
             id="path140" /></g><g
           id="g142"
           transform="translate(736.5739,325.1641)"><path
             d="m 0,0 v -0.793 c -0.083,0.03 -0.149,0.053 -0.201,0.071 -0.052,0.019 -0.095,0.032 -0.134,0.038 -0.036,0.008 -0.076,0.014 -0.117,0.017 -0.041,0.004 -0.095,0.006 -0.162,0.006 -0.54,0 -0.987,-0.26 -1.336,-0.781 -0.298,-0.477 -0.446,-1.008 -0.446,-1.595 v -2.85 H -3.197 V 0 h 0.736 l 0.056,-1.013 c 0.185,0.307 0.36,0.528 0.523,0.661 0.334,0.27 0.735,0.406 1.201,0.406 0.128,0 0.244,-0.003 0.353,-0.011 C -0.222,0.036 -0.111,0.021 0,0"
             style="fill:#ffffff;fill-opacity:1;fill-rule:nonzero;stroke:none"
             id="path144" /></g><g
           id="g146"
           transform="translate(742.5317,322.457)"><path
             d="m 0,0 h -4.533 c 0,-0.843 0.199,-1.488 0.595,-1.931 0.398,-0.443 0.921,-0.665 1.564,-0.665 0.492,0 0.963,0.154 1.415,0.462 0.127,0.081 0.26,0.182 0.401,0.303 0.141,0.12 0.294,0.261 0.456,0.423 v -0.957 c -0.177,-0.132 -0.344,-0.247 -0.494,-0.347 -0.153,-0.099 -0.297,-0.181 -0.429,-0.247 -0.469,-0.243 -0.937,-0.363 -1.404,-0.363 -0.809,0 -1.497,0.276 -2.059,0.825 -0.609,0.579 -0.914,1.331 -0.914,2.256 0,0.872 0.274,1.6 0.824,2.187 0.555,0.596 1.243,0.893 2.06,0.893 0.794,0 1.427,-0.287 1.893,-0.858 C -0.208,1.459 0,0.8 0,0 m -4.421,0.672 h 3.485 C -1.025,1.17 -1.217,1.542 -1.51,1.788 -1.804,2.034 -2.158,2.156 -2.572,2.156 -3.033,2.156 -3.424,2.014 -3.743,1.727 -4.039,1.463 -4.265,1.112 -4.421,0.672"
             style="fill:#ffffff;fill-opacity:1;fill-rule:nonzero;stroke:none"
             id="path148" /></g><g
           id="g150"
           transform="translate(747.5737,327.9031)"><path
             d="M 0,0 H 0.859 V -8.625 H 0.091 l -0.078,0.956 c -0.106,-0.147 -0.208,-0.277 -0.313,-0.39 -0.103,-0.114 -0.207,-0.211 -0.311,-0.292 -0.372,-0.278 -0.801,-0.417 -1.292,-0.417 -0.765,0 -1.4,0.293 -1.904,0.88 -0.497,0.587 -0.747,1.298 -0.747,2.133 0,0.866 0.262,1.604 0.792,2.212 0.534,0.623 1.201,0.935 2.003,0.935 0.335,0 0.647,-0.058 0.936,-0.176 0.104,-0.043 0.225,-0.102 0.362,-0.176 0.137,-0.073 0.292,-0.161 0.461,-0.264 m 0,-2.553 v 1.695 c -0.348,0.301 -0.652,0.502 -0.91,0.605 -0.262,0.104 -0.514,0.154 -0.76,0.154 -0.61,0 -1.103,-0.252 -1.48,-0.759 -0.356,-0.477 -0.535,-1.029 -0.535,-1.661 0,-0.675 0.197,-1.236 0.589,-1.683 0.364,-0.41 0.796,-0.616 1.291,-0.616 0.491,0 0.914,0.212 1.272,0.638 C -0.176,-6.979 0,-6.436 0,-5.777"
             style="fill:#ffffff;fill-opacity:1;fill-rule:nonzero;stroke:none"
             id="path152" /></g><g
           id="g154"
           transform="translate(749.7568,327.65)"><path
             d="m 0,0 c 0.156,0 0.287,-0.051 0.391,-0.154 0.104,-0.103 0.156,-0.25 0.156,-0.44 0,-0.191 -0.048,-0.337 -0.145,-0.441 C 0.305,-1.137 0.172,-1.188 0,-1.188 c -0.171,0 -0.302,0.058 -0.393,0.176 -0.095,0.117 -0.141,0.253 -0.141,0.407 0,0.241 0.055,0.403 0.167,0.484 C -0.256,-0.042 -0.133,0 0,0 m -0.388,-2.486 h 0.8 v -5.887 h -0.8 z"
             style="fill:#ffffff;fill-opacity:1;fill-rule:nonzero;stroke:none"
             id="path156" /></g><g
           id="g158"
           transform="translate(751.896,326.902)"><path
             d="M 0,0 H 0.735 V -1.728 H 2.304 V -2.444 H 0.735 v -3.739 c 0,-0.308 0.056,-0.529 0.172,-0.66 0.115,-0.132 0.313,-0.198 0.596,-0.198 0.163,0 0.302,0.017 0.418,0.054 0.113,0.036 0.242,0.084 0.383,0.144 V -7.559 C 2.185,-7.596 2.043,-7.63 1.876,-7.663 1.708,-7.698 1.54,-7.713 1.369,-7.713 c -0.444,0 -0.792,0.099 -1.035,0.298 -0.276,0.204 -0.411,0.536 -0.411,0.99 v 3.981 h -1.005 v 0.716 h 1.005"
             style="fill:#ffffff;fill-opacity:1;fill-rule:nonzero;stroke:none"
             id="path160" /></g><g
           id="g162"
           transform="translate(759.6324,323.0844)"><path
             d="m 0,0 v -2.774 c 0,-0.124 0.031,-0.233 0.085,-0.323 0.056,-0.092 0.157,-0.137 0.307,-0.137 0.044,0 0.081,10e-4 0.111,0.004 0.029,0.003 0.059,0.01 0.088,0.018 0.045,0.013 0.083,0.028 0.118,0.043 0.033,0.015 0.061,0.026 0.083,0.034 V -3.752 C 0.658,-3.796 0.526,-3.828 0.392,-3.845 0.258,-3.863 0.153,-3.874 0.079,-3.874 c -0.378,0 -0.627,0.1 -0.745,0.298 -0.098,0.124 -0.146,0.392 -0.146,0.802 C -0.908,-2.934 -1.005,-3.075 -1.1,-3.196 -1.198,-3.317 -1.294,-3.417 -1.39,-3.499 -1.776,-3.8 -2.226,-3.95 -2.737,-3.95 c -0.543,0 -1.014,0.157 -1.414,0.473 -0.416,0.338 -0.625,0.766 -0.625,1.287 0,0.652 0.335,1.133 1.004,1.442 0.243,0.117 0.568,0.22 0.973,0.308 0.405,0.087 0.889,0.167 1.455,0.243 l 0.532,0.053 c 0,0.513 -0.131,0.915 -0.395,1.204 -0.263,0.291 -0.651,0.435 -1.162,0.435 -0.193,0 -0.385,-0.023 -0.575,-0.071 C -3.132,1.376 -3.324,1.301 -3.518,1.198 -3.621,1.14 -3.737,1.07 -3.863,0.99 -3.988,0.908 -4.125,0.805 -4.275,0.682 v 0.902 c 0.633,0.418 1.31,0.627 2.039,0.627 0.743,0 1.312,-0.231 1.715,-0.693 C -0.174,1.115 0,0.608 0,0 m -0.812,-1.155 v 0.351 L -1.189,-0.848 C -2.118,-0.943 -2.772,-1.071 -3.15,-1.232 -3.656,-1.431 -3.908,-1.754 -3.908,-2.2 c 0,-0.132 0.031,-0.258 0.09,-0.381 0.06,-0.121 0.14,-0.229 0.244,-0.323 0.105,-0.097 0.233,-0.174 0.386,-0.231 0.152,-0.06 0.322,-0.088 0.506,-0.088 0.504,0 0.946,0.202 1.326,0.604 0.362,0.412 0.544,0.898 0.544,1.464"
             style="fill:#ffffff;fill-opacity:1;fill-rule:nonzero;stroke:none"
             id="path164" /></g><g
           id="g166"
           transform="translate(761.9954,326.902)"><path
             d="M 0,0 H 0.735 V -1.728 H 2.304 V -2.444 H 0.735 v -3.739 c 0,-0.308 0.056,-0.529 0.172,-0.66 0.115,-0.132 0.313,-0.198 0.596,-0.198 0.164,0 0.303,0.017 0.418,0.054 0.114,0.036 0.243,0.084 0.383,0.144 V -7.559 C 2.184,-7.596 2.042,-7.63 1.876,-7.663 1.709,-7.698 1.54,-7.713 1.369,-7.713 c -0.446,0 -0.79,0.099 -1.035,0.298 -0.275,0.204 -0.411,0.536 -0.411,0.99 v 3.981 h -1.004 v 0.716 h 1.004"
             style="fill:#ffffff;fill-opacity:1;fill-rule:nonzero;stroke:none"
             id="path168" /></g><g
           id="g170"
           transform="translate(767.887,319.1358)"><path
             d="M 0,0 C -0.767,0 -1.438,0.274 -2.017,0.823 -2.633,1.404 -2.94,2.155 -2.94,3.08 c 0,0.872 0.271,1.601 0.811,2.188 0.559,0.595 1.244,0.892 2.061,0.892 0.809,0 1.493,-0.297 2.047,-0.892 C 2.53,4.681 2.806,3.956 2.806,3.09 2.806,2.18 2.508,1.429 1.914,0.835 1.364,0.276 0.726,0 0,0 m -0.08,0.726 c 0.536,0 1.011,0.22 1.424,0.659 0.403,0.447 0.602,1.016 0.602,1.705 0,0.711 -0.215,1.292 -0.644,1.738 -0.394,0.411 -0.85,0.617 -1.37,0.617 -0.534,0 -0.991,-0.214 -1.37,-0.638 -0.416,-0.47 -0.623,-1.045 -0.623,-1.727 0,-0.689 0.204,-1.266 0.613,-1.728 0.379,-0.418 0.834,-0.626 1.368,-0.626"
             style="fill:#ffffff;fill-opacity:1;fill-rule:nonzero;stroke:none"
             id="path172" /></g><g
           id="g174"
           transform="translate(719.6913,314.1517)"><path
             d="M 0,0 H 0.857 V -8.626 H 0.089 L 0.012,-7.669 C -0.093,-7.816 -0.197,-7.947 -0.301,-8.06 -0.403,-8.174 -0.508,-8.269 -0.612,-8.352 -0.982,-8.63 -1.414,-8.77 -1.904,-8.77 c -0.764,0 -1.399,0.295 -1.904,0.881 -0.498,0.587 -0.747,1.298 -0.747,2.134 0,0.865 0.265,1.603 0.791,2.211 0.535,0.624 1.204,0.935 2.004,0.935 0.335,0 0.647,-0.058 0.934,-0.175 0.107,-0.043 0.226,-0.103 0.363,-0.176 0.138,-0.074 0.292,-0.162 0.463,-0.264 m 0,-2.552 v 1.693 c -0.348,0.301 -0.654,0.501 -0.913,0.604 -0.259,0.105 -0.512,0.155 -0.757,0.155 -0.609,0 -1.102,-0.253 -1.481,-0.759 -0.355,-0.476 -0.535,-1.03 -0.535,-1.66 0,-0.677 0.196,-1.237 0.59,-1.684 0.365,-0.411 0.795,-0.615 1.292,-0.615 0.49,0 0.915,0.21 1.272,0.637 C -0.177,-6.98 0,-6.437 0,-5.776"
             style="fill:#ffffff;fill-opacity:1;fill-rule:nonzero;stroke:none"
             id="path176" /></g><g
           id="g178"
           transform="translate(726.1715,309.3324)"><path
             d="m 0,0 v -2.772 c 0,-0.125 0.029,-0.233 0.084,-0.324 0.058,-0.093 0.158,-0.139 0.307,-0.139 0.045,0 0.082,0.002 0.112,0.007 0.028,0.003 0.058,0.008 0.089,0.016 0.042,0.014 0.082,0.029 0.116,0.043 0.034,0.015 0.061,0.027 0.083,0.035 V -3.751 C 0.659,-3.795 0.526,-3.827 0.391,-3.845 0.258,-3.863 0.153,-3.872 0.078,-3.872 c -0.378,0 -0.626,0.098 -0.744,0.296 -0.097,0.126 -0.145,0.393 -0.145,0.804 -0.097,-0.162 -0.194,-0.303 -0.291,-0.424 -0.096,-0.12 -0.193,-0.221 -0.289,-0.302 -0.386,-0.301 -0.834,-0.451 -1.348,-0.451 -0.542,0 -1.012,0.156 -1.414,0.473 -0.414,0.338 -0.622,0.766 -0.622,1.287 0,0.653 0.334,1.132 1,1.442 0.246,0.117 0.571,0.22 0.975,0.307 0.405,0.088 0.89,0.168 1.452,0.243 l 0.537,0.054 c 0,0.513 -0.133,0.914 -0.396,1.204 -0.263,0.29 -0.651,0.435 -1.164,0.435 -0.192,0 -0.383,-0.023 -0.574,-0.072 C -3.135,1.376 -3.325,1.302 -3.517,1.199 -3.621,1.14 -3.737,1.07 -3.864,0.99 -3.988,0.909 -4.127,0.806 -4.274,0.682 v 0.902 c 0.629,0.418 1.308,0.628 2.037,0.628 0.741,0 1.313,-0.232 1.714,-0.694 C -0.173,1.115 0,0.609 0,0 m -0.811,-1.155 v 0.351 L -1.19,-0.847 C -2.118,-0.942 -2.773,-1.071 -3.149,-1.232 -3.654,-1.43 -3.907,-1.753 -3.907,-2.2 c 0,-0.132 0.03,-0.258 0.088,-0.381 0.061,-0.12 0.141,-0.228 0.247,-0.323 0.103,-0.097 0.232,-0.172 0.384,-0.23 0.15,-0.06 0.32,-0.089 0.504,-0.089 0.506,0 0.949,0.202 1.326,0.605 0.365,0.411 0.547,0.898 0.547,1.463"
             style="fill:#ffffff;fill-opacity:1;fill-rule:nonzero;stroke:none"
             id="path180" /></g><path
           d="m 727.831,305.526 h 0.801 v 8.625 h -0.801 z"
           style="fill:#ffffff;fill-opacity:1;fill-rule:nonzero;stroke:none"
           id="path182" /><path
           d="m 729.691,305.526 h 0.801 v 8.625 h -0.801 z"
           style="fill:#ffffff;fill-opacity:1;fill-rule:nonzero;stroke:none"
           id="path184" /><g
           id="g186"
           transform="translate(736.1827,309.3324)"><path
             d="m 0,0 v -2.772 c 0,-0.125 0.028,-0.233 0.084,-0.324 0.056,-0.093 0.158,-0.139 0.307,-0.139 0.044,0 0.081,0.002 0.11,0.007 0.029,0.003 0.061,0.008 0.091,0.016 0.042,0.014 0.081,0.029 0.116,0.043 0.034,0.015 0.06,0.027 0.082,0.035 V -3.751 C 0.658,-3.795 0.526,-3.827 0.391,-3.845 0.256,-3.863 0.152,-3.872 0.078,-3.872 c -0.377,0 -0.628,0.098 -0.746,0.296 -0.095,0.126 -0.144,0.393 -0.144,0.804 -0.098,-0.162 -0.193,-0.303 -0.289,-0.424 -0.098,-0.12 -0.194,-0.221 -0.291,-0.302 -0.386,-0.301 -0.834,-0.451 -1.347,-0.451 -0.542,0 -1.015,0.156 -1.415,0.473 -0.415,0.338 -0.622,0.766 -0.622,1.287 0,0.653 0.334,1.132 1.001,1.442 0.246,0.117 0.57,0.22 0.975,0.307 0.404,0.088 0.889,0.168 1.452,0.243 l 0.536,0.054 c 0,0.513 -0.132,0.914 -0.397,1.204 -0.263,0.29 -0.65,0.435 -1.162,0.435 -0.192,0 -0.384,-0.023 -0.574,-0.072 C -3.135,1.376 -3.326,1.302 -3.517,1.199 -3.622,1.14 -3.738,1.07 -3.863,0.99 -3.991,0.909 -4.127,0.806 -4.276,0.682 v 0.902 c 0.628,0.418 1.311,0.628 2.04,0.628 0.741,0 1.312,-0.232 1.713,-0.694 C -0.174,1.115 0,0.609 0,0 m -0.812,-1.155 v 0.351 L -1.19,-0.847 C -2.118,-0.942 -2.773,-1.071 -3.151,-1.232 -3.656,-1.43 -3.909,-1.753 -3.909,-2.2 c 0,-0.132 0.031,-0.258 0.09,-0.381 0.06,-0.12 0.14,-0.228 0.245,-0.323 0.105,-0.097 0.231,-0.172 0.385,-0.23 0.151,-0.06 0.32,-0.089 0.504,-0.089 0.505,0 0.948,0.202 1.327,0.605 0.365,0.411 0.546,0.898 0.546,1.463"
             style="fill:#ffffff;fill-opacity:1;fill-rule:nonzero;stroke:none"
             id="path188" /></g><g
           id="g190"
           transform="translate(741.4484,314.1517)"><path
             d="M 0,0 H 2.886 C 3.659,0 4.296,-0.126 4.801,-0.375 5.506,-0.727 5.86,-1.314 5.86,-2.135 5.86,-2.7 5.7,-3.163 5.38,-3.522 5.061,-3.882 4.549,-4.167 3.844,-4.38 3.97,-4.431 4.081,-4.481 4.177,-4.528 c 0.097,-0.048 0.176,-0.1 0.234,-0.16 0.26,-0.22 0.463,-0.541 0.612,-0.968 l 1.114,-2.97 H 5.146 l -0.58,1.804 C 4.262,-5.919 3.943,-5.33 3.609,-5.05 3.319,-4.787 2.841,-4.654 2.174,-4.654 H 0.881 V -8.626 H 0 M 3.053,-0.76 H 0.881 v -3.213 h 1.336 c 0.535,0 0.986,0.05 1.355,0.149 0.367,0.1 0.665,0.259 0.896,0.478 0.156,0.14 0.283,0.312 0.382,0.519 0.102,0.204 0.151,0.412 0.151,0.625 0,0.404 -0.166,0.738 -0.502,1.003 -0.363,0.293 -0.845,0.439 -1.446,0.439"
             style="fill:#ffffff;fill-opacity:1;fill-rule:nonzero;stroke:none"
             id="path192" /></g><g
           id="g194"
           transform="translate(753.7662,308.7056)"><path
             d="m 0,0 h -4.533 c 0,-0.843 0.2,-1.488 0.596,-1.932 0.397,-0.443 0.918,-0.665 1.565,-0.665 0.49,0 0.962,0.154 1.413,0.463 0.126,0.081 0.26,0.181 0.402,0.302 0.142,0.121 0.293,0.262 0.455,0.423 v -0.957 c -0.177,-0.131 -0.342,-0.248 -0.493,-0.347 -0.153,-0.099 -0.296,-0.181 -0.43,-0.247 -0.467,-0.241 -0.936,-0.362 -1.403,-0.362 -0.809,0 -1.496,0.274 -2.061,0.825 -0.607,0.579 -0.911,1.331 -0.911,2.254 0,0.873 0.273,1.602 0.823,2.19 0.558,0.594 1.243,0.892 2.061,0.892 0.793,0 1.425,-0.288 1.893,-0.859 C -0.208,1.46 0,0.799 0,0 m -4.422,0.67 h 3.486 c -0.089,0.5 -0.28,0.872 -0.574,1.117 -0.292,0.245 -0.648,0.369 -1.062,0.369 -0.46,0 -0.851,-0.142 -1.168,-0.429 C -4.039,1.464 -4.264,1.111 -4.422,0.67"
             style="fill:#ffffff;fill-opacity:1;fill-rule:nonzero;stroke:none"
             id="path196" /></g><g
           id="g198"
           transform="translate(759.055,310.7508)"><path
             d="m 0,0 0.223,0.661 h 0.589 v -5.326 c 0,-0.916 -0.225,-1.613 -0.679,-2.09 -0.451,-0.476 -1.154,-0.715 -2.102,-0.715 -0.388,0 -0.754,0.068 -1.099,0.204 -0.346,0.136 -0.707,0.346 -1.086,0.633 v 0.968 c 0.238,-0.22 0.472,-0.405 0.702,-0.555 0.23,-0.151 0.455,-0.267 0.679,-0.347 0.26,-0.096 0.528,-0.143 0.804,-0.143 0.586,0 1.041,0.131 1.368,0.397 0.4,0.321 0.601,0.838 0.601,1.551 v 0.724 c -0.282,-0.461 -0.63,-0.787 -1.046,-0.979 -0.283,-0.131 -0.595,-0.198 -0.937,-0.198 -0.734,0 -1.35,0.291 -1.848,0.87 -0.489,0.594 -0.734,1.281 -0.734,2.057 0,0.777 0.231,1.463 0.69,2.058 0.535,0.681 1.218,1.022 2.05,1.022 0.414,0 0.808,-0.098 1.179,-0.295 0.112,-0.068 0.222,-0.141 0.33,-0.222 C -0.209,0.195 -0.105,0.104 0,0 m 0,-2.375 v 1.616 c -0.126,0.141 -0.255,0.257 -0.385,0.352 -0.129,0.095 -0.259,0.18 -0.382,0.254 -0.149,0.08 -0.301,0.138 -0.457,0.175 -0.157,0.037 -0.317,0.055 -0.48,0.055 -0.556,0 -1.017,-0.194 -1.381,-0.583 -0.407,-0.44 -0.612,-1.02 -0.612,-1.737 0,-0.653 0.17,-1.193 0.512,-1.619 0.335,-0.416 0.769,-0.626 1.302,-0.626 0.527,0 0.974,0.202 1.337,0.604 C -0.182,-3.494 0,-2.991 0,-2.375"
             style="fill:#ffffff;fill-opacity:1;fill-rule:nonzero;stroke:none"
             id="path200" /></g><g
           id="g202"
           transform="translate(761.2382,313.8982)"><path
             d="m 0,0 c 0.154,0 0.285,-0.052 0.389,-0.154 0.105,-0.104 0.156,-0.25 0.156,-0.44 0,-0.191 -0.048,-0.337 -0.144,-0.441 C 0.303,-1.137 0.171,-1.188 0,-1.188 c -0.171,0 -0.303,0.059 -0.396,0.176 -0.092,0.117 -0.138,0.253 -0.138,0.408 0,0.24 0.055,0.403 0.166,0.483 C -0.256,-0.039 -0.133,0 0,0 M -0.39,-2.487 H 0.411 V -8.373 H -0.39 Z"
             style="fill:#ffffff;fill-opacity:1;fill-rule:nonzero;stroke:none"
             id="path204" /></g><g
           id="g206"
           transform="translate(765.458,305.3829)"><path
             d="m 0,0 c -0.765,0 -1.435,0.275 -2.016,0.825 -0.616,0.581 -0.922,1.331 -0.922,2.255 0,0.873 0.27,1.603 0.811,2.189 0.558,0.595 1.244,0.891 2.06,0.891 0.809,0 1.492,-0.296 2.049,-0.891 C 2.53,4.683 2.805,3.957 2.805,3.091 2.805,2.182 2.51,1.43 1.915,0.836 1.368,0.278 0.727,0 0,0 m -0.078,0.727 c 0.535,0 1.01,0.219 1.426,0.659 0.4,0.448 0.6,1.015 0.6,1.705 0,0.711 -0.213,1.292 -0.645,1.738 -0.393,0.411 -0.85,0.616 -1.37,0.616 -0.535,0 -0.991,-0.213 -1.368,-0.639 -0.417,-0.469 -0.626,-1.044 -0.626,-1.726 0,-0.689 0.205,-1.265 0.614,-1.728 0.378,-0.417 0.835,-0.625 1.369,-0.625"
             style="fill:#ffffff;fill-opacity:1;fill-rule:nonzero;stroke:none"
             id="path208" /></g><g
           id="g210"
           transform="translate(774.344,309.4637)"><path
             d="m 0,0 v -3.937 h -0.801 v 3.883 c 0,0.41 -0.152,0.747 -0.458,1.012 -0.304,0.271 -0.666,0.407 -1.09,0.407 -0.565,0 -1.05,-0.231 -1.459,-0.694 C -4.215,0.202 -4.42,-0.327 -4.42,-0.913 v -3.024 h -0.756 v 5.885 h 0.7 l 0.032,-1.101 c 0.201,0.302 0.436,0.55 0.702,0.749 0.44,0.322 0.933,0.484 1.482,0.484 0.639,0 1.173,-0.191 1.604,-0.572 C -0.217,1.134 0,0.631 0,0"
             style="fill:#ffffff;fill-opacity:1;fill-rule:nonzero;stroke:none"
             id="path212" /></g><g
           id="g214"
           transform="translate(780.6258,308.7056)"><path
             d="m 0,0 h -4.533 c 0,-0.843 0.2,-1.488 0.595,-1.932 0.397,-0.443 0.919,-0.665 1.565,-0.665 0.49,0 0.962,0.154 1.414,0.463 0.126,0.081 0.259,0.181 0.402,0.302 0.14,0.121 0.292,0.262 0.454,0.423 v -0.957 c -0.176,-0.131 -0.342,-0.248 -0.493,-0.347 -0.152,-0.099 -0.296,-0.181 -0.428,-0.247 -0.469,-0.241 -0.938,-0.362 -1.405,-0.362 -0.808,0 -1.495,0.274 -2.06,0.825 -0.609,0.579 -0.913,1.331 -0.913,2.254 0,0.873 0.275,1.602 0.825,2.19 0.557,0.594 1.243,0.892 2.06,0.892 0.792,0 1.425,-0.288 1.892,-0.859 C -0.209,1.46 0,0.799 0,0 m -4.423,0.67 h 3.486 c -0.087,0.5 -0.28,0.872 -0.572,1.117 -0.295,0.245 -0.649,0.369 -1.063,0.369 -0.461,0 -0.851,-0.142 -1.171,-0.429 C -4.039,1.464 -4.265,1.111 -4.423,0.67"
             style="fill:#ffffff;fill-opacity:1;fill-rule:nonzero;stroke:none"
             id="path216" /></g><g
           id="g218"
           transform="translate(719.6913,300.4003)"><path
             d="M 0,0 H 0.857 V -8.626 H 0.089 L 0.012,-7.67 c -0.105,-0.146 -0.209,-0.277 -0.313,-0.39 -0.102,-0.115 -0.207,-0.209 -0.311,-0.291 -0.37,-0.279 -0.802,-0.418 -1.292,-0.418 -0.764,0 -1.399,0.292 -1.904,0.881 -0.498,0.586 -0.747,1.298 -0.747,2.132 0,0.866 0.265,1.604 0.791,2.212 0.535,0.624 1.204,0.935 2.004,0.935 0.335,0 0.647,-0.058 0.934,-0.175 0.107,-0.044 0.226,-0.103 0.363,-0.176 0.138,-0.074 0.292,-0.162 0.463,-0.264 m 0,-2.553 v 1.694 c -0.348,0.303 -0.654,0.503 -0.913,0.605 -0.259,0.104 -0.512,0.154 -0.757,0.154 -0.609,0 -1.102,-0.253 -1.481,-0.759 -0.355,-0.476 -0.535,-1.029 -0.535,-1.661 0,-0.675 0.196,-1.235 0.59,-1.684 0.365,-0.41 0.795,-0.615 1.292,-0.615 0.49,0 0.915,0.212 1.272,0.638 C -0.177,-6.979 0,-6.437 0,-5.777"
             style="fill:#ffffff;fill-opacity:1;fill-rule:nonzero;stroke:none"
             id="path220" /></g><g
           id="g222"
           transform="translate(726.7744,294.953)"><path
             d="m 0,0 h -4.533 c 0,-0.844 0.199,-1.487 0.596,-1.931 0.396,-0.443 0.919,-0.665 1.565,-0.665 0.491,0 0.961,0.154 1.415,0.463 0.125,0.08 0.258,0.18 0.399,0.302 0.141,0.119 0.295,0.262 0.458,0.423 v -0.957 c -0.178,-0.133 -0.344,-0.247 -0.495,-0.347 -0.154,-0.099 -0.295,-0.181 -0.43,-0.248 -0.468,-0.24 -0.936,-0.362 -1.402,-0.362 -0.81,0 -1.496,0.275 -2.061,0.824 -0.608,0.581 -0.912,1.332 -0.912,2.255 0,0.874 0.274,1.602 0.823,2.19 0.557,0.594 1.243,0.891 2.059,0.891 0.794,0 1.427,-0.286 1.894,-0.858 C -0.209,1.46 0,0.8 0,0 m -4.422,0.672 h 3.485 C -1.025,1.17 -1.216,1.542 -1.509,1.788 -1.803,2.034 -2.157,2.156 -2.572,2.156 -3.033,2.156 -3.424,2.014 -3.743,1.727 -4.038,1.464 -4.265,1.111 -4.422,0.672"
             style="fill:#ffffff;fill-opacity:1;fill-rule:nonzero;stroke:none"
             id="path224" /></g><path
           d="m 727.654,291.775 h 0.802 v 8.625 h -0.802 z"
           style="fill:#ffffff;fill-opacity:1;fill-rule:nonzero;stroke:none"
           id="path226" /><g
           id="g228"
           transform="translate(732.7641,300.3992)"><path
             d="M 0,0 H 0.992 L 3.831,-7.579 6.613,0 H 7.627 L 4.287,-8.626 H 3.42"
             style="fill:#ffffff;fill-opacity:1;fill-rule:nonzero;stroke:none"
             id="path230" /></g><g
           id="g232"
           transform="translate(746.228,294.953)"><path
             d="m 0,0 h -4.535 c 0,-0.844 0.201,-1.487 0.597,-1.931 0.397,-0.443 0.921,-0.665 1.565,-0.665 0.491,0 0.962,0.154 1.414,0.463 0.126,0.08 0.26,0.18 0.401,0.302 0.141,0.119 0.293,0.262 0.457,0.423 v -0.957 c -0.177,-0.133 -0.344,-0.247 -0.495,-0.347 -0.152,-0.099 -0.296,-0.181 -0.429,-0.248 -0.469,-0.24 -0.937,-0.362 -1.404,-0.362 -0.809,0 -1.495,0.275 -2.059,0.824 -0.61,0.581 -0.914,1.332 -0.914,2.255 0,0.874 0.275,1.602 0.825,2.19 0.556,0.594 1.243,0.891 2.059,0.891 0.793,0 1.425,-0.286 1.894,-0.858 C -0.209,1.46 0,0.8 0,0 m -4.42,0.672 h 3.484 c -0.089,0.498 -0.281,0.87 -0.574,1.116 -0.293,0.246 -0.648,0.368 -1.063,0.368 -0.461,0 -0.85,-0.142 -1.17,-0.429 C -4.04,1.464 -4.265,1.111 -4.42,0.672"
             style="fill:#ffffff;fill-opacity:1;fill-rule:nonzero;stroke:none"
             id="path234" /></g><g
           id="g236"
           transform="translate(752.2839,295.7122)"><path
             d="m 0,0 v -3.937 h -0.8 v 3.882 c 0,0.41 -0.153,0.747 -0.457,1.013 -0.306,0.271 -0.668,0.407 -1.09,0.407 -0.566,0 -1.054,-0.232 -1.461,-0.694 C -4.216,0.202 -4.42,-0.326 -4.42,-0.913 v -3.024 h -0.756 v 5.885 h 0.701 l 0.033,-1.101 c 0.2,0.3 0.435,0.549 0.702,0.748 0.436,0.322 0.931,0.484 1.481,0.484 0.638,0 1.172,-0.189 1.603,-0.571 C -0.218,1.133 0,0.631 0,0"
             style="fill:#ffffff;fill-opacity:1;fill-rule:nonzero;stroke:none"
             id="path238" /></g><g
           id="g240"
           transform="translate(758.5667,294.953)"><path
             d="m 0,0 h -4.534 c 0,-0.844 0.2,-1.487 0.595,-1.931 0.398,-0.443 0.921,-0.665 1.565,-0.665 0.492,0 0.962,0.154 1.414,0.463 0.128,0.08 0.261,0.18 0.402,0.302 0.141,0.119 0.292,0.262 0.456,0.423 V -2.365 C -0.278,-2.498 -0.447,-2.612 -0.596,-2.712 -0.749,-2.811 -0.893,-2.893 -1.025,-2.96 -1.494,-3.2 -1.963,-3.322 -2.43,-3.322 c -0.808,0 -1.495,0.275 -2.059,0.824 -0.609,0.581 -0.914,1.332 -0.914,2.255 0,0.874 0.275,1.602 0.825,2.19 0.558,0.594 1.243,0.891 2.059,0.891 0.794,0 1.425,-0.286 1.894,-0.858 C -0.209,1.46 0,0.8 0,0 m -4.421,0.672 h 3.484 c -0.088,0.498 -0.28,0.87 -0.573,1.116 -0.293,0.246 -0.648,0.368 -1.063,0.368 -0.46,0 -0.852,-0.142 -1.171,-0.429 C -4.039,1.464 -4.266,1.111 -4.421,0.672"
             style="fill:#ffffff;fill-opacity:1;fill-rule:nonzero;stroke:none"
             id="path242" /></g><g
           id="g244"
           transform="translate(760.1461,299.3976)"><path
             d="M 0,0 H 0.735 V -1.726 H 2.304 V -2.443 H 0.735 v -3.74 c 0,-0.307 0.057,-0.528 0.172,-0.659 0.116,-0.133 0.315,-0.198 0.596,-0.198 0.164,0 0.302,0.018 0.418,0.053 0.116,0.036 0.243,0.085 0.383,0.145 V -7.558 C 2.187,-7.595 2.044,-7.629 1.876,-7.662 1.709,-7.696 1.541,-7.712 1.37,-7.712 c -0.444,0 -0.79,0.098 -1.036,0.296 -0.273,0.206 -0.41,0.537 -0.41,0.991 v 3.982 H -1.08 v 0.717 h 1.004"
             style="fill:#ffffff;fill-opacity:1;fill-rule:nonzero;stroke:none"
             id="path246" /></g><g
           id="g248"
           transform="translate(766.0366,291.6314)"><path
             d="m 0,0 c -0.765,0 -1.436,0.275 -2.016,0.824 -0.616,0.582 -0.923,1.332 -0.923,2.256 0,0.873 0.271,1.603 0.811,2.19 0.56,0.593 1.244,0.89 2.061,0.89 0.809,0 1.493,-0.297 2.049,-0.89 C 2.531,4.683 2.807,3.956 2.807,3.091 2.807,2.182 2.509,1.43 1.915,0.836 1.367,0.278 0.727,0 0,0 m -0.078,0.726 c 0.535,0 1.01,0.219 1.426,0.66 0.4,0.448 0.602,1.016 0.602,1.705 0,0.711 -0.216,1.291 -0.646,1.736 C 0.91,5.241 0.452,5.446 -0.067,5.446 -0.601,5.446 -1.058,5.232 -1.436,4.807 -1.853,4.337 -2.06,3.762 -2.06,3.08 c 0,-0.689 0.203,-1.264 0.612,-1.727 0.379,-0.418 0.836,-0.627 1.37,-0.627"
             style="fill:#ffffff;fill-opacity:1;fill-rule:nonzero;stroke:none"
             id="path250" /></g><g
           id="g252"
           transform="translate(316.2005,237.7224)"><path
             d="M 0,0 H -17.426 L -80.254,126.398 H 0 Z"
             style="fill:#c3172b;fill-opacity:1;fill-rule:nonzero;stroke:none"
             id="path254" /></g><g
           id="g256"
           transform="translate(63.4053,300.7686)"><path
             d="M 0,0 C 0,34.317 37.673,53.392 63.121,63.352 H -17.426 V -63.046 H 63.576 C 28.506,-63.046 0,-34.16 0,0"
             style="fill:#3fb0e5;fill-opacity:1;fill-rule:nonzero;stroke:none"
             id="path258" /></g><g
           id="g260"
           transform="translate(219.5663,276.0576)"><path
             d="M 0,0 H 32.027 L 16.05,32.977 Z"
             style="fill:#c57815;fill-opacity:1;fill-rule:nonzero;stroke:none"
             id="path262" /></g><g
           id="g264"
           transform="translate(209.2965,254.9409)"><path
             d="M 0,0 -8.392,-17.219 H 60.877 L 52.559,0 Z"
             style="fill:#c57815;fill-opacity:1;fill-rule:nonzero;stroke:none"
             id="path266" /></g><g
           id="g268"
           transform="translate(219.5663,276.0576)"><path
             d="M 0,0 16.05,32.977 32.027,0 Z M 15.566,88.062 -47.189,-38.335 h 28.527 l 8.392,17.218 h 52.559 l 8.319,-17.218 h 28.6 L 16.38,88.062 Z"
             style="fill:#ffffff;fill-opacity:1;fill-rule:nonzero;stroke:none"
             id="path270" /></g><g
           id="g272"
           transform="translate(126.5261,364.1201)"><path
             d="m 0,0 c 14.782,-7.842 29.87,-6.483 42.612,-18.777 l -14.1,-19.233 c -8.295,8.147 -18.254,13.123 -28.736,13.123 -19.531,0 -38.159,-17.345 -38.159,-38.614 0,-21.649 19.307,-38.39 38.084,-38.39 11.161,0 20.814,5.961 28.886,13.876 L 42.612,-107.77 C 31.9,-118.407 18.859,-126.398 0.455,-126.398 H 45.851 L 108.606,0"
             style="fill:#10704f;fill-opacity:1;fill-rule:nonzero;stroke:none"
             id="path274" /></g><g
           id="g276"
           transform="translate(155.1129,276.1053)"><path
             d="m 0,0 c -8.072,-7.915 -17.725,-13.876 -28.886,-13.876 -18.777,0 -38.084,16.741 -38.084,38.39 0,21.269 18.628,38.614 38.159,38.614 10.482,0 20.441,-4.976 28.736,-13.123 l 14.1,19.232 c -12.742,12.295 -26.774,18.554 -42.612,18.778 -34.235,0 -63.121,-29.035 -63.121,-63.352 0,-34.16 28.506,-63.046 63.576,-63.046 18.404,0 31.445,7.99 42.157,18.628 z"
             style="fill:#ffffff;fill-opacity:1;fill-rule:nonzero;stroke:none"
             id="path278" /></g><g
           id="g280"
           transform="translate(325.6098,261.8309)"><path
             d="m 0,0 h 2.476 v -21.904 h 13.113 v -2.205 H 0 Z"
             style="fill:#c3172b;fill-opacity:1;fill-rule:nonzero;stroke:none"
             id="path282" /></g><g
           id="g284"
           transform="translate(354.1118,240.6232)"><path
             d="M 0,0 C 0.958,0.637 1.673,1.558 2.141,2.762 V 5.75 h -5.52 c -3.011,0 -4.516,-1.089 -4.516,-3.266 0,-1.066 0.39,-1.905 1.171,-2.519 0.78,-0.613 1.873,-0.921 3.278,-0.921 1.339,0 2.487,0.318 3.446,0.956 M 2.676,13.897 C 3.903,12.704 4.516,10.938 4.516,8.6 V -2.728 H 2.241 v 2.849 c -0.535,-0.949 -1.321,-1.69 -2.358,-2.224 -1.037,-0.532 -2.27,-0.798 -3.696,-0.798 -1.963,0 -3.525,0.486 -4.684,1.459 -1.16,0.973 -1.74,2.258 -1.74,3.857 0,1.551 0.541,2.802 1.623,3.752 1.081,0.949 2.804,1.425 5.168,1.425 h 5.587 v 1.111 c 0,1.575 -0.424,2.774 -1.271,3.597 -0.848,0.821 -2.086,1.233 -3.713,1.233 -1.116,0 -2.186,-0.191 -3.212,-0.573 -1.026,-0.383 -1.907,-0.91 -2.643,-1.581 l -1.071,1.841 c 0.893,0.788 1.963,1.395 3.212,1.824 1.249,0.429 2.565,0.644 3.948,0.644 2.297,0 4.059,-0.597 5.285,-1.791"
             style="fill:#c3172b;fill-opacity:1;fill-rule:nonzero;stroke:none"
             id="path286" /></g><g
           id="g288"
           transform="translate(387.0294,240.6232)"><path
             d="m 0,0 c 1.004,0.591 1.79,1.43 2.359,2.519 0.568,1.088 0.853,2.328 0.853,3.717 0,1.39 -0.285,2.629 -0.853,3.718 C 1.79,11.043 1.004,11.883 0,12.473 c -1.003,0.59 -2.119,0.886 -3.345,0.886 -1.249,0 -2.37,-0.296 -3.362,-0.886 C -7.7,11.883 -8.48,11.043 -9.049,9.954 -9.618,8.865 -9.902,7.626 -9.902,6.236 c 0,-1.389 0.334,-2.604 0.853,-3.717 0.467,-1.002 0.883,-1.527 2.342,-2.519 0.955,-0.649 2.113,-0.886 3.362,-0.886 1.226,0 2.342,0.295 3.345,0.886 M 1.305,14.35 C 2.643,13.573 3.691,12.479 4.45,11.065 5.208,9.652 5.587,8.043 5.587,6.236 5.587,4.43 5.208,2.819 4.45,1.407 3.691,-0.006 2.643,-1.106 1.305,-1.894 c -1.338,-0.788 -2.833,-1.181 -4.483,-1.181 -1.472,0 -2.793,0.324 -3.964,0.972 -1.171,0.649 -2.113,1.587 -2.827,2.815 v -3.613 h -2.275 v 24.109 h 2.375 v -9.309 c 0.736,1.182 1.679,2.08 2.827,2.694 1.148,0.613 2.437,0.921 3.864,0.921 1.65,0 3.145,-0.389 4.483,-1.164"
             style="fill:#c3172b;fill-opacity:1;fill-rule:nonzero;stroke:none"
             id="path290" /></g><g
           id="g292"
           transform="translate(400.4946,252.506)"><path
             d="M 0,0 C -1.149,-1.124 -1.801,-2.589 -1.957,-4.396 H 10.521 C 10.365,-2.589 9.712,-1.124 8.564,0 7.415,1.123 5.982,1.685 4.265,1.685 2.57,1.685 1.148,1.123 0,0 m 12.763,-6.237 h -14.72 c 0.134,-1.9 0.836,-3.434 2.107,-4.604 1.272,-1.17 2.877,-1.754 4.818,-1.754 1.093,0 2.096,0.202 3.011,0.608 0.914,0.405 1.706,1.002 2.375,1.789 l 1.338,-1.598 c -0.781,-0.973 -1.756,-1.715 -2.927,-2.224 -1.171,-0.509 -2.459,-0.764 -3.864,-0.764 -1.807,0 -3.407,0.399 -4.8,1.199 -1.395,0.799 -2.482,1.904 -3.262,3.317 -0.781,1.414 -1.171,3.011 -1.171,4.795 0,1.784 0.373,3.382 1.121,4.795 0.747,1.412 1.773,2.513 3.077,3.301 1.305,0.787 2.771,1.182 4.399,1.182 1.628,0 3.089,-0.395 4.383,-1.182 1.293,-0.788 2.308,-1.882 3.044,-3.283 0.736,-1.403 1.104,-3.006 1.104,-4.813 z"
             style="fill:#c3172b;fill-opacity:1;fill-rule:nonzero;stroke:none"
             id="path294" /></g><path
           d="m 418.609,261.831 h 2.375 v -24.109 h -2.375 z"
           style="fill:#c3172b;fill-opacity:1;fill-rule:nonzero;stroke:none"
           id="path296" /><path
           d="m 428.076,261.831 h 2.376 v -24.109 h -2.376 z"
           style="fill:#c3172b;fill-opacity:1;fill-rule:nonzero;stroke:none"
           id="path298" /><g
           id="g300"
           transform="translate(440.1035,252.506)"><path
             d="M 0,0 C -1.148,-1.124 -1.801,-2.589 -1.957,-4.396 H 10.521 C 10.365,-2.589 9.713,-1.124 8.564,0 7.415,1.123 5.982,1.685 4.266,1.685 2.57,1.685 1.148,1.123 0,0 m 12.763,-6.237 h -14.72 c 0.134,-1.9 0.836,-3.434 2.107,-4.604 1.272,-1.17 2.877,-1.754 4.818,-1.754 1.093,0 2.095,0.202 3.011,0.608 0.914,0.405 1.706,1.002 2.375,1.789 l 1.338,-1.598 c -0.781,-0.973 -1.756,-1.715 -2.927,-2.224 -1.171,-0.509 -2.459,-0.764 -3.864,-0.764 -1.806,0 -3.407,0.399 -4.8,1.199 -1.395,0.799 -2.482,1.904 -3.262,3.317 -0.781,1.414 -1.171,3.011 -1.171,4.795 0,1.784 0.373,3.382 1.12,4.795 0.747,1.412 1.774,2.513 3.078,3.301 1.305,0.787 2.771,1.182 4.4,1.182 1.627,0 3.088,-0.395 4.381,-1.182 1.293,-0.788 2.309,-1.882 3.045,-3.283 0.736,-1.403 1.104,-3.006 1.104,-4.813 z"
             style="fill:#c3172b;fill-opacity:1;fill-rule:nonzero;stroke:none"
             id="path302" /></g><g
           id="g304"
           transform="translate(470.4619,239.7721)"><path
             d="m 0,0 v -2.05 h -14.317 v 1.633 l 11.073,14.559 h -10.873 v 2.084 H -0.2 V 14.593 L -11.273,0 Z"
             style="fill:#c3172b;fill-opacity:1;fill-rule:nonzero;stroke:none"
             id="path306" /></g><g
           id="g308"
           transform="translate(488.0244,239.7721)"><path
             d="m 0,0 v -2.05 h -14.317 v 1.633 l 11.073,14.559 h -10.873 v 2.084 H -0.2 V 14.593 L -11.273,0 Z"
             style="fill:#c3172b;fill-opacity:1;fill-rule:nonzero;stroke:none"
             id="path310" /></g><g
           id="g312"
           transform="translate(501.9413,240.6237)"><path
             d="M 0,0 C 0.958,0.637 1.672,1.558 2.141,2.762 V 5.75 h -5.52 c -3.011,0 -4.517,-1.089 -4.517,-3.266 0,-1.066 0.39,-1.905 1.171,-2.519 0.781,-0.613 1.873,-0.921 3.279,-0.921 1.338,0 2.486,0.318 3.446,0.956 M 2.676,13.897 C 3.902,12.704 4.516,10.938 4.516,8.6 V -2.728 H 2.241 v 2.849 c -0.535,-0.949 -1.321,-1.69 -2.358,-2.224 -1.037,-0.532 -2.27,-0.798 -3.697,-0.798 -1.963,0 -3.524,0.486 -4.684,1.459 -1.159,0.973 -1.739,2.258 -1.739,3.857 0,1.551 0.541,2.802 1.623,3.752 1.081,0.949 2.803,1.425 5.168,1.425 h 5.587 v 1.111 c 0,1.575 -0.424,2.774 -1.272,3.597 -0.848,0.821 -2.085,1.233 -3.713,1.233 -1.115,0 -2.186,-0.191 -3.212,-0.573 -1.026,-0.383 -1.906,-0.91 -2.642,-1.581 l -1.071,1.841 c 0.892,0.788 1.962,1.395 3.211,1.824 1.249,0.429 2.565,0.644 3.949,0.644 2.296,0 4.058,-0.597 5.285,-1.791"
             style="fill:#c3172b;fill-opacity:1;fill-rule:nonzero;stroke:none"
             id="path314" /></g><g
           id="g316"
           transform="translate(533.1357,240.5785)"><path
             d="m 0,0 c 0.992,0.549 1.773,1.328 2.342,2.34 0.568,1.011 0.852,2.162 0.852,3.453 0,1.291 -0.284,2.442 -0.852,3.453 -0.569,1.012 -1.35,1.792 -2.342,2.34 -0.992,0.549 -2.103,0.824 -3.328,0.824 -1.25,0 -2.37,-0.275 -3.362,-0.824 -0.994,-0.548 -1.774,-1.328 -2.342,-2.34 -0.57,-1.011 -0.854,-2.162 -0.854,-3.453 0,-1.291 0.284,-2.442 0.854,-3.453 0.568,-1.012 1.348,-1.791 2.342,-2.34 0.992,-0.549 2.112,-0.823 3.362,-0.823 1.225,0 2.336,0.274 3.328,0.823 M 5.536,21.252 V -2.695 H 3.262 v 3.356 c -0.714,-1.14 -1.657,-2.012 -2.827,-2.614 -1.171,-0.602 -2.493,-0.904 -3.964,-0.904 -1.651,0 -3.145,0.366 -4.483,1.098 -1.339,0.731 -2.386,1.754 -3.144,3.066 -0.759,1.312 -1.138,2.808 -1.138,4.486 0,1.678 0.379,3.173 1.138,4.486 0.758,1.312 1.805,2.329 3.144,3.051 1.338,0.72 2.832,1.081 4.483,1.081 1.426,0 2.715,-0.286 3.864,-0.856 1.148,-0.57 2.091,-1.404 2.826,-2.502 v 10.199 z"
             style="fill:#c3172b;fill-opacity:1;fill-rule:nonzero;stroke:none"
             id="path318" /></g><g
           id="g320"
           transform="translate(548.3232,252.5236)"><path
             d="M 0,0 C -1.148,-1.124 -1.801,-2.589 -1.957,-4.396 H 10.521 C 10.365,-2.589 9.713,-1.124 8.564,0 7.415,1.123 5.982,1.685 4.266,1.685 2.57,1.685 1.148,1.123 0,0 m 12.763,-6.237 h -14.72 c 0.134,-1.9 0.836,-3.434 2.107,-4.604 1.272,-1.17 2.877,-1.754 4.818,-1.754 1.093,0 2.095,0.202 3.011,0.608 0.914,0.405 1.706,1.002 2.375,1.789 l 1.338,-1.598 c -0.781,-0.973 -1.756,-1.715 -2.927,-2.224 -1.171,-0.509 -2.459,-0.764 -3.864,-0.764 -1.806,0 -3.407,0.399 -4.8,1.199 -1.395,0.799 -2.482,1.904 -3.262,3.317 -0.781,1.414 -1.171,3.011 -1.171,4.795 0,1.784 0.373,3.382 1.12,4.795 0.747,1.412 1.774,2.513 3.078,3.301 1.305,0.787 2.771,1.182 4.4,1.182 1.627,0 3.088,-0.395 4.381,-1.182 1.293,-0.788 2.309,-1.882 3.045,-3.283 0.736,-1.403 1.104,-3.006 1.104,-4.813 z"
             style="fill:#c3172b;fill-opacity:1;fill-rule:nonzero;stroke:none"
             id="path322" /></g><path
           d="m 566.437,261.831 h 2.376 V 237.74 h -2.376 z"
           style="fill:#c3172b;fill-opacity:1;fill-rule:nonzero;stroke:none"
           id="path324" /><g
           id="g326"
           transform="translate(587.0947,238.568)"><path
             d="m 0,0 c -1.595,0.564 -2.826,1.309 -3.696,2.235 l 0.969,1.93 C -1.879,3.306 -0.752,2.613 0.652,2.082 2.058,1.551 3.507,1.287 5.002,1.287 c 2.096,0 3.668,0.389 4.717,1.168 1.048,0.779 1.572,1.789 1.572,3.031 0,0.948 -0.284,1.704 -0.853,2.268 C 9.869,8.318 9.172,8.753 8.347,9.058 7.521,9.362 6.373,9.696 4.901,10.057 3.14,10.508 1.734,10.942 0.687,11.361 c -1.049,0.417 -1.947,1.055 -2.694,1.913 -0.747,0.858 -1.121,2.02 -1.121,3.487 0,1.197 0.313,2.287 0.938,3.269 0.624,0.981 1.583,1.765 2.877,2.353 1.292,0.587 2.898,0.88 4.817,0.88 1.338,0 2.647,-0.186 3.931,-0.559 1.282,-0.372 2.391,-0.886 3.328,-1.541 l -0.836,-1.997 c -0.982,0.654 -2.031,1.146 -3.145,1.473 -1.116,0.327 -2.208,0.491 -3.278,0.491 -2.053,0 -3.597,-0.401 -4.634,-1.202 -1.037,-0.801 -1.556,-1.834 -1.556,-3.099 0,-0.948 0.285,-1.709 0.854,-2.285 0.568,-0.576 1.282,-1.016 2.141,-1.321 0.858,-0.305 2.012,-0.638 3.462,-0.999 1.717,-0.429 3.106,-0.852 4.166,-1.269 1.058,-0.419 1.957,-1.05 2.692,-1.897 0.736,-0.846 1.104,-1.992 1.104,-3.437 0,-1.196 -0.318,-2.286 -0.954,-3.267 C 12.144,1.371 11.168,0.593 9.853,0.017 8.536,-0.559 6.92,-0.846 5.002,-0.846 3.262,-0.846 1.595,-0.564 0,0"
             style="fill:#c3172b;fill-opacity:1;fill-rule:nonzero;stroke:none"
             id="path328" /></g><g
           id="g330"
           transform="translate(614.9453,240.6232)"><path
             d="M 0,0 C 0.958,0.637 1.672,1.558 2.141,2.762 V 5.75 h -5.52 c -3.011,0 -4.517,-1.089 -4.517,-3.266 0,-1.066 0.39,-1.905 1.171,-2.519 0.781,-0.613 1.873,-0.921 3.279,-0.921 1.338,0 2.486,0.318 3.446,0.956 M 2.676,13.897 C 3.902,12.704 4.516,10.938 4.516,8.6 V -2.728 H 2.241 v 2.849 c -0.535,-0.949 -1.321,-1.69 -2.358,-2.224 -1.037,-0.532 -2.27,-0.798 -3.697,-0.798 -1.963,0 -3.524,0.486 -4.684,1.459 -1.159,0.973 -1.739,2.258 -1.739,3.857 0,1.551 0.541,2.802 1.623,3.752 1.081,0.949 2.803,1.425 5.168,1.425 h 5.587 v 1.111 c 0,1.575 -0.424,2.774 -1.272,3.597 -0.848,0.821 -2.085,1.233 -3.713,1.233 -1.115,0 -2.186,-0.191 -3.212,-0.573 -1.026,-0.383 -1.906,-0.91 -2.642,-1.581 l -1.071,1.841 c 0.892,0.788 1.962,1.395 3.211,1.824 1.249,0.429 2.565,0.644 3.949,0.644 2.296,0 4.058,-0.597 5.285,-1.791"
             style="fill:#c3172b;fill-opacity:1;fill-rule:nonzero;stroke:none"
             id="path332" /></g><g
           id="g334"
           transform="translate(638.6298,240.7971)"><path
             d="m 0,0 c 1.004,0.591 1.79,1.43 2.358,2.519 0.57,1.088 0.854,2.328 0.854,3.717 0,1.39 -0.284,2.623 -0.854,3.701 C 1.79,11.014 1.004,11.854 0,12.456 c -1.003,0.602 -2.119,0.903 -3.345,0.903 -1.25,0 -2.37,-0.301 -3.362,-0.903 C -7.7,11.854 -8.48,11.014 -9.049,9.937 -9.617,8.859 -9.902,7.626 -9.902,6.236 -9.902,4.847 -9.617,3.607 -9.049,2.519 -8.48,1.43 -7.7,0.591 -6.707,0 c 0.992,-0.591 2.112,-0.886 3.362,-0.886 1.226,0 2.342,0.295 3.345,0.886 M 1.305,14.35 C 2.643,13.573 3.691,12.479 4.449,11.065 5.207,9.652 5.587,8.043 5.587,6.236 5.587,4.406 5.207,2.785 4.449,1.372 3.691,-0.041 2.648,-1.136 1.321,-1.911 c -1.327,-0.777 -2.826,-1.164 -4.499,-1.164 -1.427,0 -2.716,0.306 -3.864,0.921 -1.148,0.613 -2.091,1.511 -2.826,2.692 v -10.18 h -2.376 v 25.016 h 2.275 v -3.613 c 0.713,1.204 1.656,2.131 2.826,2.779 1.171,0.648 2.494,0.974 3.965,0.974 1.651,0 3.145,-0.389 4.483,-1.164"
             style="fill:#c3172b;fill-opacity:1;fill-rule:nonzero;stroke:none"
             id="path336" /></g><g
           id="g338"
           transform="translate(652.0947,252.5236)"><path
             d="M 0,0 C -1.148,-1.124 -1.801,-2.589 -1.957,-4.396 H 10.521 C 10.365,-2.589 9.713,-1.124 8.564,0 7.415,1.123 5.982,1.685 4.266,1.685 2.57,1.685 1.148,1.123 0,0 m 12.763,-6.237 h -14.72 c 0.134,-1.9 0.836,-3.434 2.107,-4.604 1.272,-1.17 2.877,-1.754 4.818,-1.754 1.093,0 2.095,0.202 3.011,0.608 0.914,0.405 1.706,1.002 2.375,1.789 l 1.338,-1.598 c -0.781,-0.973 -1.756,-1.715 -2.927,-2.224 -1.171,-0.509 -2.459,-0.764 -3.864,-0.764 -1.806,0 -3.407,0.399 -4.8,1.199 -1.395,0.799 -2.482,1.904 -3.262,3.317 -0.781,1.414 -1.171,3.011 -1.171,4.795 0,1.784 0.373,3.382 1.12,4.795 0.747,1.412 1.774,2.513 3.078,3.301 1.305,0.787 2.771,1.182 4.4,1.182 1.627,0 3.088,-0.395 4.381,-1.182 1.293,-0.788 2.309,-1.882 3.045,-3.283 0.736,-1.403 1.104,-3.006 1.104,-4.813 z"
             style="fill:#c3172b;fill-opacity:1;fill-rule:nonzero;stroke:none"
             id="path340" /></g><g
           id="g342"
           transform="translate(674.9765,255.1984)"><path
             d="m 0,0 c 1.104,0.625 2.47,0.938 4.098,0.938 v -2.397 l -0.569,0.034 c -1.851,0 -3.3,-0.591 -4.348,-1.771 -1.049,-1.182 -1.573,-2.838 -1.573,-4.969 v -9.312 H -4.768 V 0.799 h 2.276 V -2.779 C -1.936,-1.552 -1.104,-0.625 0,0"
             style="fill:#c3172b;fill-opacity:1;fill-rule:nonzero;stroke:none"
             id="path344" /></g><g
           id="g346"
           transform="translate(686.1465,252.5065)"><path
             d="M 0,0 C -1.148,-1.124 -1.801,-2.589 -1.957,-4.396 H 10.521 C 10.365,-2.589 9.713,-1.124 8.564,0 7.415,1.123 5.982,1.685 4.266,1.685 2.57,1.685 1.148,1.123 0,0 m 12.763,-6.237 h -14.72 c 0.134,-1.9 0.836,-3.434 2.107,-4.604 1.272,-1.17 2.877,-1.754 4.818,-1.754 1.093,0 2.095,0.202 3.011,0.608 0.914,0.405 1.706,1.002 2.375,1.789 l 1.338,-1.598 c -0.781,-0.973 -1.756,-1.715 -2.927,-2.224 -1.171,-0.509 -2.459,-0.764 -3.864,-0.764 -1.806,0 -3.407,0.399 -4.8,1.199 -1.395,0.799 -2.482,1.904 -3.262,3.317 -0.781,1.414 -1.171,3.011 -1.171,4.795 0,1.784 0.373,3.382 1.12,4.795 0.747,1.412 1.774,2.513 3.078,3.301 1.305,0.787 2.771,1.182 4.4,1.182 1.627,0 3.088,-0.395 4.381,-1.182 1.293,-0.788 2.309,-1.882 3.045,-3.283 0.736,-1.403 1.104,-3.006 1.104,-4.813 z"
             style="fill:#c3172b;fill-opacity:1;fill-rule:nonzero;stroke:none"
             id="path348" /></g><g
           id="g350"
           transform="translate(350.4048,298.0782)"><path
             d="m 0,0 -10.262,-29.021 h -4.306 L -24.864,0 h 4.744 L -12.281,-22.387 -4.374,0 Z"
             style="fill:#1d1d1b;fill-opacity:1;fill-rule:nonzero;stroke:none"
             id="path352" /></g><path
           d="m 353.436,288.817 h 4.206 v -19.76 h -4.206 z m -0.59,6.486 c 0,1.554 1.144,2.775 2.691,2.775 1.548,0 2.692,-1.147 2.692,-2.665 0,-1.628 -1.11,-2.886 -2.692,-2.886 -1.547,0 -2.691,1.221 -2.691,2.776"
           style="fill:#1d1d1b;fill-opacity:1;fill-rule:nonzero;stroke:none"
           id="path354" /><path
           d="m 363.934,298.078 h 4.206 v -29.021 h -4.206 z"
           style="fill:#1d1d1b;fill-opacity:1;fill-rule:nonzero;stroke:none"
           id="path356" /><path
           d="m 374.432,298.078 h 4.206 v -29.021 h -4.206 z"
           style="fill:#1d1d1b;fill-opacity:1;fill-rule:nonzero;stroke:none"
           id="path358" /><g
           id="g360"
           transform="translate(395.7642,275.4954)"><path
             d="m 0,0 v 2.294 h -4.34 c -2.86,0 -3.634,-1.185 -3.634,-2.627 0,-1.665 1.279,-2.738 3.432,-2.738 2.052,0 3.835,1.036 4.542,3.071 M 4.206,5.402 V -6.18 H 0.235 v 2.406 c -1.009,-1.703 -2.96,-2.664 -5.652,-2.664 -4.104,0 -6.695,2.478 -6.695,5.919 0,3.294 2.018,5.884 7.469,5.884 H 0 v 0.296 c 0,2.701 -1.48,4.292 -4.475,4.292 -2.019,0 -4.105,-0.739 -5.45,-1.961 l -1.649,3.367 c 1.918,1.628 4.71,2.443 7.604,2.443 5.181,0 8.176,-2.701 8.176,-8.4"
             style="fill:#1d1d1b;fill-opacity:1;fill-rule:nonzero;stroke:none"
             id="path362" /></g><g
           id="g364"
           transform="translate(410.772,290.8332)"><path
             d="M 0,0 V -1.24 H 4.946 V -5.115 H 0.135 v -16.661 h -4.206 v 16.661 h -2.961 v 3.875 h 2.961 v 1.317 c 0,4.34 2.254,7.168 6.426,7.168 1.447,0 2.86,-0.349 3.802,-1.124 L 4.98,2.48 C 4.34,2.983 3.533,3.332 2.658,3.332 0.909,3.332 0,2.208 0,0"
             style="fill:#1d1d1b;fill-opacity:1;fill-rule:nonzero;stroke:none"
             id="path366" /></g><g
           id="g368"
           transform="translate(432.4073,289.0903)"><path
             d="m 0,0 v -4.403 c -0.37,0.074 -0.673,0.111 -0.976,0.111 -3.196,0 -5.214,-2.072 -5.214,-6.105 v -9.584 h -4.206 v 19.759 h 4.003 V -3.108 C -5.182,-1.036 -2.994,0 0,0"
             style="fill:#1d1d1b;fill-opacity:1;fill-rule:nonzero;stroke:none"
             id="path370" /></g><g
           id="g372"
           transform="translate(447.4825,275.5473)"><path
             d="m 0,0 v 2.294 h -4.34 c -2.86,0 -3.634,-1.185 -3.634,-2.627 0,-1.665 1.279,-2.738 3.432,-2.738 2.053,0 3.836,1.036 4.542,3.071 M 4.206,5.402 V -6.18 H 0.235 v 2.406 c -1.008,-1.703 -2.961,-2.664 -5.652,-2.664 -4.104,0 -6.695,2.478 -6.695,5.919 0,3.294 2.018,5.884 7.469,5.884 H 0 v 0.296 c 0,2.701 -1.48,4.292 -4.475,4.292 -2.018,0 -4.104,-0.739 -5.451,-1.961 l -1.648,3.367 c 1.918,1.628 4.711,2.443 7.604,2.443 5.181,0 8.176,-2.701 8.176,-8.4"
             style="fill:#1d1d1b;fill-opacity:1;fill-rule:nonzero;stroke:none"
             id="path374" /></g><g
           id="g376"
           transform="translate(475.545,280.3802)"><path
             d="m 0,0 v -11.323 h -4.205 v 10.73 c 0,3.516 -1.581,5.218 -4.274,5.218 -2.994,0 -5.012,-1.998 -5.012,-5.958 v -9.99 h -4.206 v 19.76 h 4.004 V 5.883 c 1.38,1.813 3.566,2.775 6.19,2.775 C -3.196,8.658 0,5.957 0,0"
             style="fill:#1d1d1b;fill-opacity:1;fill-rule:nonzero;stroke:none"
             id="path378" /></g><g
           id="g380"
           transform="translate(480.3585,279.1956)"><path
             d="m 0,0 c 0,5.92 4.038,10.102 9.724,10.102 3.499,0 6.292,-1.591 7.671,-4.588 L 14.165,3.441 C 13.088,5.328 11.474,6.18 9.69,6.18 6.595,6.18 4.239,3.812 4.239,0 c 0,-3.849 2.356,-6.18 5.451,-6.18 1.784,0 3.398,0.852 4.475,2.739 l 3.23,-2.073 C 16.016,-8.474 13.223,-10.139 9.724,-10.139 4.038,-10.139 0,-5.921 0,0"
             style="fill:#1d1d1b;fill-opacity:1;fill-rule:nonzero;stroke:none"
             id="path382" /></g><g
           id="g384"
           transform="translate(512.9971,275.4179)"><path
             d="m 0,0 v 2.294 h -4.34 c -2.86,0 -3.634,-1.185 -3.634,-2.627 0,-1.665 1.279,-2.738 3.432,-2.738 2.053,0 3.836,1.036 4.542,3.071 M 4.206,5.402 V -6.18 H 0.235 v 2.406 c -1.008,-1.703 -2.961,-2.664 -5.652,-2.664 -4.104,0 -6.695,2.478 -6.695,5.919 0,3.294 2.018,5.884 7.469,5.884 H 0 v 0.296 c 0,2.701 -1.48,4.292 -4.475,4.292 -2.018,0 -4.104,-0.739 -5.451,-1.961 l -1.648,3.367 c 1.918,1.628 4.711,2.443 7.604,2.443 5.181,0 8.176,-2.701 8.176,-8.4"
             style="fill:#1d1d1b;fill-opacity:1;fill-rule:nonzero;stroke:none"
             id="path386" /></g><g
           id="g388"
           transform="translate(546.8809,279.6736)"><path
             d="m 0,0 c 0,3.952 -2.321,6.471 -5.35,6.471 -3.027,0 -5.349,-2.519 -5.349,-6.471 0,-3.952 2.322,-6.471 5.349,-6.471 C -2.321,-6.471 0,-3.952 0,0 M 4.139,18.405 V -10.346 H 0.102 v 2.673 c -1.414,-1.975 -3.499,-2.944 -5.956,-2.944 -5.215,0 -9.084,4.185 -9.084,10.617 0,6.432 3.869,10.578 9.084,10.578 2.322,0 4.374,-0.892 5.788,-2.79 v 10.617 z"
             style="fill:#1d1d1b;fill-opacity:1;fill-rule:nonzero;stroke:none"
             id="path390" /></g><path
           d="m 557.281,288.817 h 4.206 v -19.76 h -4.206 z m -0.572,6.486 c 0,1.554 1.145,2.775 2.692,2.775 1.548,0 2.692,-1.147 2.692,-2.665 0,-1.628 -1.111,-2.886 -2.692,-2.886 -1.547,0 -2.692,1.221 -2.692,2.776"
           style="fill:#1d1d1b;fill-opacity:1;fill-rule:nonzero;stroke:none"
           id="path392" /><g
           id="g394"
           transform="translate(599.8106,298.0782)"><path
             d="m 0,0 -10.263,-29.021 h -4.306 L -24.864,0 h 4.744 L -12.281,-22.387 -4.374,0 Z"
             style="fill:#1d1d1b;fill-opacity:1;fill-rule:nonzero;stroke:none"
             id="path396" /></g><g
           id="g398"
           transform="translate(604.0162,280.7864)"><path
             d="M 0,0 H 10.195 C 9.858,2.85 7.873,4.811 5.114,4.811 2.39,4.811 0.404,2.887 0,0 M 14.132,-3.071 H 0.034 c 0.505,-2.886 2.692,-4.737 5.82,-4.737 2.019,0 3.601,0.704 4.879,2.147 l 2.254,-2.85 c -1.614,-2.109 -4.137,-3.218 -7.233,-3.218 -6.023,0 -9.926,4.254 -9.926,10.138 0,5.883 3.937,10.102 9.286,10.102 5.249,0 9.085,-4.033 9.085,-10.213 0,-0.37 -0.034,-0.925 -0.067,-1.369"
             style="fill:#1d1d1b;fill-opacity:1;fill-rule:nonzero;stroke:none"
             id="path400" /></g><g
           id="g402"
           transform="translate(633.4313,289.0405)"><path
             d="m 0,0 v -4.403 c -0.37,0.074 -0.673,0.111 -0.976,0.111 -3.196,0 -5.214,-2.072 -5.214,-6.105 v -9.584 h -4.206 v 19.759 h 4.003 V -3.108 C -5.182,-1.036 -2.994,0 0,0"
             style="fill:#1d1d1b;fill-opacity:1;fill-rule:nonzero;stroke:none"
             id="path404" /></g><g
           id="g406"
           transform="translate(651.0255,279.1956)"><path
             d="m 0,0 c 0,3.774 -2.288,6.18 -5.35,6.18 -3.028,0 -5.316,-2.406 -5.316,-6.18 0,-3.774 2.288,-6.18 5.316,-6.18 C -2.288,-6.18 0,-3.774 0,0 m -14.905,0 c 0,5.92 4.038,10.102 9.555,10.102 5.585,0 9.589,-4.182 9.589,-10.102 0,-5.921 -4.004,-10.139 -9.589,-10.139 -5.517,0 -9.555,4.218 -9.555,10.139"
             style="fill:#1d1d1b;fill-opacity:1;fill-rule:nonzero;stroke:none"
             id="path408" /></g><g
           id="g410"
           transform="translate(677.7755,280.3802)"><path
             d="m 0,0 v -11.323 h -4.205 v 10.73 c 0,3.516 -1.581,5.218 -4.274,5.218 -2.994,0 -5.012,-1.998 -5.012,-5.958 v -9.99 h -4.206 v 19.76 h 4.004 V 5.883 c 1.38,1.813 3.566,2.775 6.19,2.775 C -3.196,8.658 0,5.957 0,0"
             style="fill:#1d1d1b;fill-opacity:1;fill-rule:nonzero;stroke:none"
             id="path412" /></g><g
           id="g414"
           transform="translate(694.7364,275.4954)"><path
             d="m 0,0 v 2.294 h -4.34 c -2.86,0 -3.634,-1.185 -3.634,-2.627 0,-1.665 1.279,-2.738 3.432,-2.738 2.053,0 3.836,1.036 4.542,3.071 M 4.206,5.402 V -6.18 H 0.235 v 2.406 c -1.008,-1.703 -2.961,-2.664 -5.652,-2.664 -4.104,0 -6.695,2.478 -6.695,5.919 0,3.294 2.018,5.884 7.469,5.884 H 0 v 0.296 c 0,2.701 -1.48,4.292 -4.475,4.292 -2.018,0 -4.104,-0.739 -5.451,-1.961 l -1.648,3.367 c 1.918,1.628 4.711,2.443 7.604,2.443 5.181,0 8.176,-2.701 8.176,-8.4"
             style="fill:#1d1d1b;fill-opacity:1;fill-rule:nonzero;stroke:none"
             id="path416" /></g><g
           id="g418"
           transform="translate(325.5399,335.7682)"><path
             d="m 0,0 c 0,16.525 11.582,28.352 27.168,28.352 8.651,0 15.872,-3.446 20.591,-9.712 l -7.436,-7.518 c -3.36,4.228 -7.578,6.422 -12.583,6.422 -9.366,0 -16.015,-7.206 -16.015,-17.544 0,-10.339 6.649,-17.545 16.015,-17.545 5.005,0 9.223,2.194 12.583,6.502 l 7.436,-7.52 c -4.719,-6.344 -11.94,-9.79 -20.662,-9.79 C 11.582,-28.353 0,-16.526 0,0"
             style="fill:#1d1d1b;fill-opacity:1;fill-rule:nonzero;stroke:none"
             id="path420" /></g><g
           id="g422"
           transform="translate(404.6085,321.0494)"><path
             d="m 0,0 v 4.399 h -7.814 c -5.331,0 -7.011,-2.159 -7.011,-5.04 0,-3.12 2.41,-5.2 6.427,-5.2 3.797,0 7.084,1.921 8.398,5.841 M 11.393,10.96 V -13.601 H 0.73 v 5.361 c -2.117,-3.92 -6.207,-6 -11.976,-6 -9.202,0 -14.679,5.599 -14.679,13.04 0,7.599 4.893,12.88 16.87,12.88 H 0 c 0,5.36 -2.921,8.48 -9.055,8.48 -4.163,0 -8.471,-1.519 -11.32,-4 l -4.089,8.72 c 4.308,3.36 10.662,5.2 16.943,5.2 11.976,0 18.914,-6.08 18.914,-19.12"
             style="fill:#1d1d1b;fill-opacity:1;fill-rule:nonzero;stroke:none"
             id="path424" /></g><g
           id="g426"
           transform="translate(450.6934,351.0959)"><path
             d="m 0,0 v -11.52 c -0.949,0.081 -1.68,0.16 -2.556,0.16 -6.28,0 -10.443,-3.76 -10.443,-12 V -43.681 H -24.392 V -0.64 H -13.51 V -6.319 C -10.735,-2.16 -6.062,0 0,0"
             style="fill:#1d1d1b;fill-opacity:1;fill-rule:nonzero;stroke:none"
             id="path428" /></g><path
           d="m 457.488,364.12 h 11.393 v -56.705 h -11.393 z"
           style="fill:#1d1d1b;fill-opacity:1;fill-rule:nonzero;stroke:none"
           id="path430" /><g
           id="g432"
           transform="translate(508.1719,329.5754)"><path
             d="m 0,0 c 0,7.44 -4.309,11.92 -10.005,11.92 -5.696,0 -10.078,-4.48 -10.078,-11.92 0,-7.44 4.382,-11.92 10.078,-11.92 C -4.309,-11.92 0,-7.44 0,0 m -31.621,0 c 0,12.96 9.129,22.16 21.616,22.16 12.488,0 21.544,-9.2 21.544,-22.16 0,-12.96 -9.056,-22.16 -21.544,-22.16 -12.487,0 -21.616,9.2 -21.616,22.16"
             style="fill:#1d1d1b;fill-opacity:1;fill-rule:nonzero;stroke:none"
             id="path434" /></g><g
           id="g436"
           transform="translate(578.7237,329.5306)"><path
             d="M 0,0 -8.106,21.71 -16.212,0 Z M 3.725,-9.965 H -20.01 l -4.527,-12.15 H -36.66 L -13.875,34.59 H -2.19 L 20.667,-22.115 H 8.252 Z"
             style="fill:#1d1d1b;fill-opacity:1;fill-rule:nonzero;stroke:none"
             id="path438" /></g><g
           id="g440"
           transform="translate(644.0899,332.0559)"><path
             d="M 0,0 V -24.641 H -11.393 V -1.92 c 0,6.96 -2.92,10.16 -7.96,10.16 -5.477,0 -9.42,-3.68 -9.42,-11.6 V -24.641 H -40.166 V 18.4 h 10.882 v -5.04 c 3.066,3.68 7.668,5.68 12.999,5.68 C -7.011,19.04 0,13.12 0,0"
             style="fill:#1d1d1b;fill-opacity:1;fill-rule:nonzero;stroke:none"
             id="path442" /></g><g
           id="g444"
           transform="translate(679.7325,310.3141)"><path
             d="m 0,0 c -2.337,-1.961 -5.769,-2.899 -9.274,-2.899 -9.275,0 -14.679,5.543 -14.679,16.457 v 18.844 h -6.062 v 10.233 h 6.062 v 11.171 h 11.392 V 42.635 h 9.787 V 32.402 h -9.787 V 13.728 c 0,-3.922 1.827,-6.054 4.893,-6.054 1.68,0 3.359,0.597 4.602,1.705 z"
             style="fill:#1d1d1b;fill-opacity:1;fill-rule:nonzero;stroke:none"
             id="path446" /></g><path
           d="m 687.55,350.456 h 11.393 V 307.415 H 687.55 Z m -0.003,8.065 c 0,3.153 2.291,5.599 5.698,5.599 3.406,0 5.697,-2.317 5.697,-5.405 0,-3.346 -2.291,-5.792 -5.697,-5.792 -3.407,0 -5.698,2.446 -5.698,5.598"
           style="fill:#1d1d1b;fill-opacity:1;fill-rule:nonzero;stroke:none"
           id="path448" /></g></g></g></svg>
